<?xml version="1.0" encoding="utf-8"?>
<!-- Generator: Adobe Illustrator 24.0.1, SVG Export Plug-In . SVG Version: 6.00 Build 0)  -->
<svg version="1.1" id="Layer_1" xmlns="http://www.w3.org/2000/svg" xmlns:xlink="http://www.w3.org/1999/xlink" x="0px" y="0px"
	 viewBox="0 0 5500 3700" style="enable-background:new 0 0 5500 3700;" xml:space="preserve">
<style type="text/css">
	.st0{fill:#333333;}
	.st1{fill:none;stroke:#000000;stroke-miterlimit:10;}
	.st2{fill:#00A188;}
	.st3{fill:#FFFFFF;}
	.st4{fill:#333333;stroke:#333333;stroke-miterlimit:10;}
</style>
<g>
	<path d="M2989.7,1711.05c0,3.99-3.28,7.27-7.27,7.27c-3.99,0-7.27-3.28-7.27-7.27s3.28-7.27,7.27-7.27
		C2986.42,1703.78,2989.7,1707.06,2989.7,1711.05z"/>
	<path class="st0" d="M2968.75,1688.64c0,0.63-0.12,1.23-0.36,1.78c-0.71,1.78-2.45,3.04-4.47,3.04c-2.65,0-4.82-2.17-4.82-4.82
		c0-1.78,0.95-3.32,2.41-4.15c0.71-0.43,1.54-0.67,2.41-0.67C2966.58,1683.82,2968.75,1685.99,2968.75,1688.64z"/>
	<g>
		<path class="st0" d="M2862,1978c1.54,1.98,3.09,4.19,4.41,6.39c5.73,9.92,10.36,20.28,13.67,31.31
			c3.31-11.02,7.94-21.61,13.67-31.53c2.65-4.41,5.29-8.6,8.16-12.57C2889.12,1975.35,2875.9,1977.34,2862,1978z M2862,1978
			c1.54,1.98,3.09,4.19,4.41,6.39c5.73,9.92,10.36,20.28,13.67,31.31c3.31-11.02,7.94-21.61,13.67-31.53
			c2.65-4.41,5.29-8.6,8.16-12.57C2889.12,1975.35,2875.9,1977.34,2862,1978z M3082.93,1774.5h-0.22
			c-5.51-33.95-18.52-65.26-37.26-92.38c-18.96-27.56-36.16-56-51.15-86.21l-121.05-244.74c-7.05-13.89-26.9-13.89-33.73,0
			l-121.26,244.74c-14.77,30.21-32.19,58.65-51.15,86.21c-18.52,27.12-31.53,58.43-37.26,92.38c-1.76,10.36-2.65,20.73-3.09,31.53
			c-1.1,38.81,7.94,76.07,24.47,108.92c0.88,1.54,1.76,3.31,2.65,5.07c2.2-1.1,4.41-1.98,6.83-2.65c6.39-2.42,13.45-3.53,20.5-3.53
			h44.32c-21.83-28-34.84-63.06-34.84-101.42c0-91.5,74.3-165.58,165.58-165.58c38.58,0,73.86,13.01,102.08,35.06
			c1.54-1.32,3.53-1.98,5.51-1.98c4.85,0,8.82,3.97,8.82,8.82c0,1.76-0.44,3.09-1.32,4.41c2.43,2.42,4.85,4.85,7.06,7.5
			c1.32-0.66,2.65-0.88,3.97-0.88c6.17,0,11.24,5.07,11.24,11.24c0,2.43-0.66,4.41-1.76,6.17c18.96,26.9,30.21,59.75,30.21,95.25
			c0,39.03-13.67,74.74-36.16,102.97c24.25-5.73,50.93-5.51,74.96,1.32c16.1-31.09,25.14-66.81,25.14-104.29
			C3086.01,1799.41,3084.91,1786.84,3082.93,1774.5z M2862,1978c1.54,1.98,3.09,4.19,4.41,6.39c5.73,9.92,10.36,20.28,13.67,31.31
			c3.31-11.02,7.94-21.61,13.67-31.53c2.65-4.41,5.29-8.6,8.16-12.57C2889.12,1975.35,2875.9,1977.34,2862,1978z"/>
		<path class="st0" d="M2991.74,1812.41c0,74.72-60.61,135.33-135.43,135.33c-8.43,0-16.55-0.81-24.57-2.23
			c-5.79-4.77-11.98-8.83-18.38-12.49c-10.86-6.19-22.54-10.96-34.92-14.32c-2.74-0.71-5.48-1.32-8.22-1.83
			c-0.1-0.1-0.1-0.1-0.1-0.1c-30.05-24.87-49.14-62.33-49.14-104.37c0-9.24,0.91-18.17,2.64-26.8c16.35-4.16,33.2-5.99,49.54-5.28
			c61.73,2.94,64.47,40.81,115.23,42.13c41.12,1.12,71.27-22.94,97.46-49.85C2989.71,1785.21,2991.74,1798.51,2991.74,1812.41z"/>
		<circle class="st0" cx="2977.84" cy="1748.75" r="11.86"/>
		<g>
			<path class="st0" d="M2989.7,1711.05c0,3.99-3.28,7.27-7.27,7.27c-3.99,0-7.27-3.28-7.27-7.27s3.28-7.27,7.27-7.27
				C2986.42,1703.78,2989.7,1707.06,2989.7,1711.05z"/>
		</g>
		<g>
			<path class="st0" d="M2968.75,1688.64c0,2.65-2.17,4.82-4.82,4.82c-2.65,0-4.82-2.17-4.82-4.82c0-2.65,2.17-4.82,4.82-4.82
				C2966.58,1683.82,2968.75,1685.99,2968.75,1688.64z"/>
		</g>
	</g>
	<g>
		<path class="st4" d="M3780.09,1938.53c-10.36-8.6-23.15-13.01-36.82-13.01h-33.95c-13.01,0-25.58,4.41-35.5,12.35
			c-3.53-2.65-7.28-4.85-11.24-6.83c-7.94-3.75-16.54-5.51-25.14-5.51h-40.57c-16.32,0.44-31.53,7.72-41.67,19.84
			c-2.65,2.87-4.85,6.17-6.62,9.48l-3.75-5.29c-2.65-3.53-5.73-6.83-9.48-10.14c-10.36-9.04-23.59-13.89-37.48-13.89h-30.43
			c-7.06,0-14.11,1.32-20.73,3.75c-4.85,1.98-9.7,4.63-13.89,7.72c-4.41,3.31-8.6,7.28-11.24,10.8c-0.66,0.66-1.1,1.54-1.54,2.21
			c-1.32-2.21-3.09-4.41-5.07-6.39c-10.8-11.68-25.58-18.08-41.89-18.08H3254.9c-16.1,0-31.09,6.39-41.67,18.08
			c-5.95,6.39-10.36,14.11-12.79,22.27c-3.09-10.36-9.04-19.62-17.42-26.9c-10.58-8.82-23.59-13.67-37.26-13.67h-35.28
			c-10.8,0-21.17,2.87-29.99,8.6c-3.97-1.76-8.16-3.31-12.35-4.63c-25.36-8.16-54.9-8.38-80.7-1.32
			c-11.91,3.53-23.15,8.16-33.73,14.33c-10.58,6.17-20.28,13.67-29.1,22.49c-8.38,8.6-15.87,18.3-22.05,28.88
			c-6.17,10.58-11.02,22.05-14.33,33.95c-1.1,4.63-2.21,9.04-2.87,13.67c1.54,7.94,2.2,16.1,2.2,24.47s-0.66,16.54-2.2,24.69
			c0.66,4.41,1.76,8.82,2.87,13.23c3.31,12.13,8.16,23.59,14.55,34.17c6.17,10.36,13.45,20.06,22.05,28.66
			c8.6,8.38,18.3,15.88,28.88,22.05c10.58,6.4,22.05,11.24,33.95,14.55c12.13,3.31,24.91,5.07,37.92,5.07
			c14.77,0,29.32-2.2,42.99-6.61c3.97-1.32,7.94-2.65,11.68-4.41c8.6,5.29,18.96,8.38,30.21,8.38h108.7
			c5.73-0.22,11.47-1.54,16.76-3.31c6.17,2.2,12.57,3.31,18.96,3.31h120.38c4.63,0,9.04-0.44,13.23-1.54
			c3.97,1.1,7.94,1.54,12.13,1.54h35.28c18.96,0,36.16-9.04,46.74-23.59c3.97,5.29,8.6,9.92,14.11,13.67
			c6.61,4.41,17.86,9.92,33.29,9.92h34.17c5.95,0,11.69-0.88,16.98-2.42c5.51,1.54,11.24,2.42,17.2,2.42h33.96
			c14.11,0,27.12-4.63,37.26-13.23c10.14,8.6,22.93,13.23,36.16,13.23h39.03c13.01-0.22,24.91-4.63,34.84-12.35
			c13.45-10.58,20.95-26.68,20.95-43.88v-166.9C3800.59,1965.21,3793.1,1949.34,3780.09,1938.53z M3410.78,2142.92h-0.22l0.22-0.66
			V2142.92z M3412.33,2138.29v0.22l-0.22,0.22l-1.32-0.44v-0.88l1.76,0.66L3412.33,2138.29z"/>
		<g>
			<g>
				<path class="st4" d="M2883.17,2065.75c0,8.38,0.66,16.54,2.21,24.69c-0.66,4.41-1.76,8.82-2.87,13.23
					c-3.53,12.13-8.38,23.37-14.77,33.95c-6.17,10.36-13.89,19.84-22.49,28.22c-8.82,8.38-18.52,15.65-29.1,21.39
					c-10.58,5.95-21.83,10.36-33.95,13.67c-11.91,3.09-24.47,4.63-37.04,4.63h-58.65c-6.61,0-13.01-1.1-19.18-3.31
					c-6.17,2.2-12.79,3.31-19.62,3.31h-120.38c-8.6,0-16.98-1.98-24.7-5.51h-0.22c-7.72,3.53-16.1,5.51-24.69,5.51h-35.28
					c-12.79,0-25.14-4.19-35.06-11.91c-9.92,7.72-22.27,11.91-35.28,11.91h-35.06c-14.77,0-28-5.29-37.92-14.11
					c-7.06,3.97-14.33,7.06-22.27,9.7c-13.45,4.41-28,6.62-42.99,6.62c-15.21,0-30.43-2.65-44.98-8.16
					c-1.54-0.66-3.31-1.32-4.85-1.98c-8.6,5.29-18.74,7.94-29.55,7.94h-34.17c-15.43,0-26.46-5.51-33.29-9.92
					c-5.29-3.75-10.14-8.38-13.89-13.67c-10.8,14.55-28,23.59-46.96,23.59h-35.06c-11.24,0-21.83-3.09-30.87-9.04
					c-9.04,5.95-19.84,9.04-30.65,9.04h-29.32c-8.82,0-17.42-1.98-24.91-5.51c-7.72,3.53-15.88,5.51-24.47,5.51h-29.1
					c-21.17,0-40.35-11.24-50.27-29.1c-0.88-1.76-1.98-3.97-3.09-5.95c-1.54-3.09-2.87-5.95-3.97-8.82
					c-10.36-27.34-20.5-54.02-30.65-80.48c-10.14-26.68-20.28-53.36-30.65-80.47l-3.53-11.69l-0.22-8.38
					c0-31.09,24.69-55.12,56-55.12h38.36c15.65,0,30.65,6.17,41.23,17.2c10.8-11.02,25.8-17.2,41.67-17.2h38.58
					c8.16,0,15.65,1.32,22.71,4.19c6.83-2.87,14.55-4.19,22.05-4.19h37.7c13.01,0,23.15,3.75,30.43,8.16
					c2.87-1.76,5.95-3.09,9.04-4.41c6.61-2.43,13.67-3.75,20.73-3.75h30.43c13.89,0,27.12,4.85,37.48,13.89
					c3.75,3.31,6.83,6.61,9.48,10.14l3.97,5.95l2.87,6.39c4.63-5.95,9.92-11.24,16.09-16.09c10.36-8.16,22.71-14.33,36.6-18.52
					c22.93-6.83,50.71-7.5,74.08-1.76c11.02,2.65,22.05,7.06,32.41,12.79c9.92-8.38,22.49-12.79,35.72-12.79h35.28
					c12.57,0,24.69,3.97,35.06,11.91c9.92-7.72,22.05-11.91,35.06-11.91h34.84c8.82,0,17.42,1.76,25.35,5.51
					c7.5-3.53,15.88-5.51,24.7-5.51h118.18c7.06,0,13.89,1.32,20.28,3.53c6.39-2.42,13.45-3.75,20.73-3.75h58.65
					c12.79,0,25.36,1.54,37.26,4.85c12.13,3.31,23.59,7.94,33.96,13.89c10.36,5.73,20.06,13.01,28.66,21.17
					c8.82,8.6,16.54,18.08,22.93,28.66c6.17,10.36,11.02,21.83,14.33,33.51c1.32,4.63,2.43,9.26,3.09,13.89
					C2883.83,2049.44,2883.17,2057.6,2883.17,2065.75z"/>
			</g>
		</g>
	</g>
	<g>
		<g>
			<path class="st0" d="M2885.38,2041.28c-1.54,8.16-2.21,16.32-2.21,24.47c0,8.38,0.66,16.54,2.21,24.69
				c1.54-8.16,2.2-16.32,2.2-24.69S2886.92,2049.22,2885.38,2041.28z"/>
		</g>
	</g>
	<g>
		<g>
			<path class="st0" d="M2885.38,2041.28c-1.54,8.16-2.21,16.32-2.21,24.47c0,8.38,0.66,16.54,2.21,24.69
				c1.54-8.16,2.2-16.32,2.2-24.69S2886.92,2049.22,2885.38,2041.28z"/>
		</g>
	</g>
	<g>
		<g>
			<path class="st3" d="M1816.79,2151.37c-0.79-1.35-1.55-2.74-2.27-4.16c-0.71-1.43-1.35-2.86-1.9-4.28
				c-10.24-26.99-20.44-53.74-30.6-80.25c-10.16-26.51-20.35-53.25-30.6-80.24c0-0.4-0.06-0.75-0.18-1.07
				c-0.12-0.32-0.18-0.63-0.18-0.95c0-2.22,1.47-3.34,4.41-3.34h38.33c3.01,0,5.08,1.51,6.19,4.53l36.43,108.45l33.69-108.45
				c1.11-3.01,3.29-4.53,6.54-4.53h38.69c1.83,0,3.12,0.34,3.87,1.01c0.75,0.68,1.13,1.57,1.13,2.68c0,0.63-0.04,1.07-0.12,1.31
				v0.36l-21.19,60.72l15.95,46.79l38.57-108.33c1.11-3.01,3.3-4.53,6.55-4.53h37.5c1.82,0,3.11,0.34,3.87,1.01
				c0.75,0.68,1.13,1.57,1.13,2.68c0,0.63-0.04,1.07-0.12,1.31v0.36c-5.4,13.97-10.92,27.9-16.55,41.78
				c-5.64,13.89-11.29,27.78-16.97,41.67c-5.68,13.89-11.31,27.79-16.9,41.72s-11.05,27.84-16.37,41.73
				c-0.32,0.87-1.03,1.84-2.14,2.91c-1.12,1.07-2.46,1.61-4.05,1.61h-0.36h-28.81c-1.75,0-3.08-0.34-3.99-1.01
				c-0.91-0.67-1.57-1.57-1.96-2.68l-18.81-49.53c-2.7,7.22-5.35,14.31-7.98,21.25c-2.62,6.94-5.23,14.03-7.86,21.26
				c-0.4,1.11-0.85,2.28-1.37,3.51c-0.52,1.23-1.13,2.38-1.84,3.45c-0.71,1.07-1.53,1.96-2.44,2.68c-0.92,0.71-1.97,1.07-3.16,1.07
				h-0.36h-28.81C1819.25,2153.87,1817.58,2153.03,1816.79,2151.37z"/>
			<path class="st3" d="M2051.43,1981.72c0.08-0.48,0.34-0.99,0.77-1.55c0.44-0.56,0.97-1.07,1.61-1.55
				c0.63-0.48,1.31-0.85,2.03-1.13c0.71-0.28,1.38-0.42,2.02-0.42h30.48c1.35,0,2.5,0.42,3.45,1.25c0.95,0.84,1.67,1.57,2.14,2.21
				l2.98,6.79l62.5,161.19c0.63,1.59,0.52,2.88-0.36,3.87c-0.88,0.99-2.38,1.49-4.53,1.49h-34.16c-1.83,0-3.24-0.34-4.23-1.01
				c-0.99-0.67-1.76-1.8-2.32-3.39c-1.59-4.04-3.14-8.07-4.64-12.09c-1.51-4.01-3.01-8.04-4.52-12.09h-63.21
				c-1.51,4.05-3.04,8.08-4.59,12.09c-1.55,4.02-3.08,8.04-4.58,12.09c-1.04,2.93-3.06,4.4-6.07,4.4h-35.12
				c-1.51,0-2.76-0.4-3.75-1.19c-1-0.79-1.17-1.98-0.54-3.57L2051.43,1981.72z M2073.1,2032.67c-1.51,4.05-3.04,8.42-4.59,13.1
				c-1.55,4.68-3.07,9.4-4.58,14.17c-1.51,4.76-3.04,9.46-4.59,14.11c-1.55,4.64-3.08,8.99-4.59,13.03h36.55L2073.1,2032.67z"/>
			<path class="st3" d="M2197.5,2096.72c1.35,1.11,3.08,2.6,5.18,4.46c2.1,1.87,4.5,3.71,7.2,5.54c4.05,2.7,8.06,4.8,12.02,6.31
				c3.97,1.51,8.13,2.26,12.5,2.26c4.05,0,7.44-0.46,10.18-1.37c2.74-0.91,4.9-2.12,6.49-3.63c1.59-1.51,2.72-3.25,3.4-5.23
				c0.67-1.98,1.01-4.08,1.01-6.31c0-2.46-0.94-4.66-2.8-6.6s-4.14-3.67-6.84-5.18c-2.7-1.51-5.52-2.79-8.46-3.86
				c-2.93-1.08-5.47-1.96-7.62-2.68c-9.52-3.33-17.86-6.92-25-10.77c-7.14-3.85-13.09-8.13-17.86-12.84
				c-4.76-4.72-8.33-9.91-10.71-15.59c-2.38-5.67-3.57-11.99-3.57-18.97c0-7.38,1.49-14.08,4.47-20.1
				c2.97-6.03,7.22-11.18,12.74-15.47c5.52-4.28,12.16-7.59,19.94-9.93c7.78-2.34,16.47-3.51,26.07-3.51
				c7.22,0,14.15,0.81,20.78,2.44c6.63,1.63,13.16,4.23,19.58,7.8c2.7,1.59,5.26,3.24,7.68,4.94c2.42,1.71,4.55,3.35,6.37,4.94
				c1.82,1.59,3.28,3.1,4.35,4.53s1.61,2.66,1.61,3.69c0,1.04-0.26,1.99-0.77,2.86c-0.52,0.87-1.29,1.86-2.32,2.97l-18.22,19.41
				c-1.35,1.35-2.7,2.02-4.04,2.02c-1.12,0-2.13-0.32-3.04-0.95s-1.92-1.43-3.03-2.38l-1.07-0.95c-1.59-1.35-3.36-2.74-5.3-4.16
				c-1.94-1.43-4.03-2.72-6.25-3.87c-2.22-1.15-4.56-2.1-7.02-2.86c-2.46-0.75-4.96-1.13-7.5-1.13c-2.62,0-5.08,0.22-7.38,0.65
				c-2.3,0.44-4.33,1.13-6.07,2.08c-1.75,0.95-3.14,2.2-4.17,3.75c-1.03,1.55-1.55,3.43-1.55,5.65c0,2.23,0.56,4.15,1.67,5.78
				c1.11,1.63,2.78,3.14,5,4.53c2.22,1.39,4.98,2.7,8.27,3.93c3.29,1.23,7.12,2.56,11.49,3.99c8.41,2.78,16.17,5.7,23.27,8.75
				c7.1,3.05,13.24,6.67,18.4,10.83c5.16,4.17,9.19,9.15,12.08,14.94c2.9,5.79,4.35,12.82,4.35,21.07c0,8.73-1.78,16.65-5.36,23.75
				c-3.57,7.1-8.47,13.16-14.7,18.15c-6.23,5.01-13.55,8.87-21.97,11.61c-8.41,2.74-17.46,4.1-27.14,4.1
				c-9.13,0-18.09-1.63-26.9-4.89c-8.81-3.26-17.03-7.64-24.65-13.14c-3.17-2.31-5.85-4.58-8.04-6.81
				c-2.18-2.23-3.91-4.02-5.18-5.37l-0.36-0.36c-0.08-0.16-0.16-0.25-0.24-0.3c-0.08-0.04-0.16-0.1-0.24-0.18
				c-0.08-0.16-0.16-0.26-0.24-0.3c-0.08-0.04-0.16-0.1-0.24-0.18c-1.83-1.99-2.74-3.58-2.74-4.78c0-1.35,0.91-2.87,2.74-4.54
				l20.59-19.64c1.67-1.19,3.01-1.79,4.05-1.79c0.71,0,1.47,0.24,2.26,0.71C2195.44,2095.05,2196.39,2095.77,2197.5,2096.72z"/>
			<path class="st3" d="M2331.91,1982.32c0.07-1.35,0.57-2.56,1.49-3.63c0.91-1.07,2.12-1.61,3.63-1.61h35.36
				c1.19,0,2.42,0.5,3.69,1.49c1.27,1,1.9,2.25,1.9,3.76v56.54h59.17v-56.54c0-1.43,0.5-2.66,1.49-3.7
				c0.99-1.03,2.27-1.55,3.86-1.55h34.79c1.59,0,2.97,0.4,4.16,1.19c1.18,0.8,1.78,2.07,1.78,3.81v166.55
				c0,1.74-0.52,3.05-1.54,3.93c-1.03,0.87-2.38,1.31-4.04,1.31h-35.15c-1.59,0-2.87-0.44-3.86-1.31c-0.99-0.87-1.49-2.18-1.49-3.93
				v-67.62h-59.17v67.62c0,1.67-0.54,2.95-1.61,3.87c-1.07,0.91-2.52,1.37-4.34,1.37h-35c-3.33,0-5.04-1.55-5.12-4.64V1982.32z"/>
			<path class="st3" d="M2522.14,1982.56c0-1.67,0.46-2.99,1.37-3.99c0.91-0.99,2.2-1.49,3.86-1.49h118.1c1.74,0,3.1,0.52,4.05,1.55
				c0.95,1.03,1.43,2.41,1.43,4.15v29.44c0,1.35-0.48,2.63-1.43,3.86c-0.95,1.23-2.34,1.84-4.17,1.84h-77.14v29.52h59.53
				c1.51,0,2.76,0.36,3.75,1.07c0.99,0.72,1.49,1.91,1.49,3.57v25.71c0,1.12-0.44,2.19-1.31,3.22c-0.88,1.03-2.15,1.55-3.81,1.55
				h-59.64v30.48h80c3.57,0,5.35,1.82,5.35,5.46v29.92c0,0.79-0.32,1.5-0.95,2.13c-0.32,2.22-1.94,3.32-4.88,3.32h-120.37
				c-1.59,0-2.86-0.42-3.8-1.25c-0.95-0.83-1.43-2.12-1.43-3.87V1982.56z"/>
			<path class="st3" d="M2835.95,2065.65c0,8.41-1.07,16.41-3.21,23.99c-2.15,7.58-5.2,14.64-9.17,21.19
				c-3.97,6.55-8.71,12.48-14.23,17.8c-5.52,5.32-11.63,9.84-18.34,13.57c-6.71,3.74-13.95,6.61-21.72,8.64
				c-7.78,2.02-15.83,3.03-24.17,3.03h-58.69c-1.43,0-2.7-0.32-3.81-0.95s-1.67-1.98-1.67-4.04v-166.31c0-1.67,0.46-3.01,1.37-4.05
				c0.91-1.03,2.28-1.55,4.11-1.55h58.69c8.34,0,16.37,1.03,24.11,3.1c7.74,2.06,14.96,5,21.66,8.81
				c6.71,3.81,12.84,8.37,18.4,13.69c5.55,5.31,10.3,11.27,14.23,17.86c3.93,6.59,6.98,13.69,9.17,21.31
				C2834.86,2049.34,2835.95,2057.32,2835.95,2065.65z M2727.02,2019.7v91.55h10c1.83,0,3.61-0.06,5.36-0.18
				c1.75-0.12,3.49-0.25,5.24-0.42c5.95-0.48,11.51-1.92,16.67-4.34c5.16-2.42,9.66-5.6,13.51-9.52c3.85-3.93,6.86-8.55,9.05-13.87
				c2.18-5.32,3.27-11.11,3.27-17.38c0-6.67-1.25-12.8-3.75-18.4c-2.5-5.59-5.89-10.43-10.18-14.52c-4.28-4.08-9.3-7.26-15.05-9.52
				c-5.76-2.26-11.89-3.39-18.4-3.39H2727.02z"/>
			<path class="st3" d="M3076.54,1989.94c1.35,0.79,2.34,1.82,2.97,3.09c0.63,1.27,0.52,2.78-0.36,4.53l-20.12,28.57
				c-0.87,1.35-1.8,2.12-2.8,2.32c-0.99,0.2-2.2-0.14-3.63-1.01c-3.9-2.93-8.18-5.2-12.86-6.79c-4.69-1.59-9.65-2.38-14.88-2.38
				c-6.51,0-12.5,1.23-17.97,3.69c-5.48,2.46-10.2,5.83-14.17,10.12c-3.98,4.29-7.07,9.29-9.29,15c-2.22,5.72-3.33,11.83-3.33,18.34
				s1.11,12.6,3.33,18.27c2.22,5.68,5.31,10.64,9.29,14.88c3.97,4.25,8.69,7.6,14.17,10.06c5.47,2.46,11.46,3.69,17.97,3.69
				c5.23,0,10.23-0.81,15-2.44c4.76-1.63,9.08-3.91,12.98-6.85c1.43-0.87,2.62-1.23,3.57-1.07c0.95,0.16,1.9,0.88,2.86,2.15
				l20.35,29.28c0.87,1.75,0.99,3.22,0.36,4.41s-1.63,2.18-2.97,2.97c-7.46,5.01-15.5,8.87-24.1,11.61
				c-8.62,2.74-17.68,4.1-27.21,4.1c-8.42,0-16.49-1.07-24.23-3.21c-7.73-2.14-14.98-5.2-21.72-9.16
				c-6.75-3.98-12.88-8.71-18.39-14.23c-5.52-5.52-10.26-11.62-14.23-18.33c-3.97-6.71-7.02-13.93-9.17-21.67
				c-2.14-7.74-3.21-15.81-3.21-24.23s1.07-16.49,3.21-24.23c2.14-7.74,5.2-15,9.17-21.79s8.71-12.96,14.23-18.52
				c5.51-5.55,11.64-10.3,18.39-14.22c6.74-3.93,13.99-6.98,21.72-9.17c7.74-2.18,15.81-3.27,24.23-3.27
				c9.53,0,18.51,1.33,26.97,3.99C3061.12,1981.11,3069.09,1984.93,3076.54,1989.94z"/>
			<path class="st3" d="M3105.23,1982.2c0-1.43,0.48-2.66,1.43-3.69c0.95-1.03,2.26-1.55,3.94-1.55h35.24
				c1.35,0,2.58,0.48,3.69,1.43c1.11,0.96,1.71,2.23,1.78,3.81v129.53h65.47c1.43,0,2.67,0.48,3.7,1.43
				c1.03,0.95,1.55,2.26,1.55,3.93v31.31c0,1.35-0.46,2.58-1.37,3.69s-2.21,1.71-3.88,1.78h-106.3c-3.5,0-5.24-1.74-5.24-5.23
				V1982.2z"/>
			<path class="st3" d="M3249.75,1982.56c0-1.67,0.46-2.99,1.37-3.99c0.9-0.99,2.19-1.49,3.86-1.49h118.11
				c1.74,0,3.09,0.52,4.04,1.55c0.95,1.03,1.44,2.41,1.44,4.15v29.44c0,1.35-0.49,2.63-1.44,3.86c-0.95,1.23-2.34,1.84-4.16,1.84
				h-77.14v29.52h59.53c1.51,0,2.76,0.36,3.75,1.07c0.99,0.72,1.49,1.91,1.49,3.57v25.71c0,1.12-0.44,2.19-1.31,3.22
				s-2.14,1.55-3.81,1.55h-59.64v30.48h80c3.58,0,5.36,1.82,5.36,5.46v29.92c0,0.79-0.32,1.5-0.95,2.13
				c-0.32,2.22-1.95,3.32-4.89,3.32h-120.37c-1.59,0-2.86-0.42-3.8-1.25c-0.95-0.83-1.43-2.12-1.43-3.87V1982.56z"/>
			<path class="st3" d="M3461.06,1981.72c0.08-0.48,0.34-0.99,0.78-1.55c0.43-0.56,0.96-1.07,1.61-1.55
				c0.63-0.48,1.31-0.85,2.02-1.13c0.71-0.28,1.39-0.42,2.02-0.42h30.48c1.35,0,2.5,0.42,3.45,1.25c0.95,0.84,1.67,1.57,2.14,2.21
				l2.97,6.79l62.5,161.19c0.63,1.59,0.52,2.88-0.36,3.87s-2.38,1.49-4.52,1.49h-34.16c-1.82,0-3.23-0.34-4.22-1.01
				c-1-0.67-1.77-1.8-2.32-3.39c-1.6-4.04-3.14-8.07-4.65-12.09c-1.51-4.01-3.01-8.04-4.52-12.09h-63.21
				c-1.51,4.05-3.03,8.08-4.58,12.09c-1.56,4.02-3.08,8.04-4.59,12.09c-1.03,2.93-3.05,4.4-6.07,4.4h-35.12
				c-1.52,0-2.77-0.4-3.76-1.19c-0.99-0.79-1.17-1.98-0.54-3.57L3461.06,1981.72z M3482.73,2032.67c-1.51,4.05-3.03,8.42-4.58,13.1
				c-1.56,4.68-3.08,9.4-4.59,14.17c-1.51,4.76-3.03,9.46-4.58,14.11c-1.55,4.64-3.07,8.99-4.58,13.03h36.54L3482.73,2032.67z"/>
			<path class="st3" d="M3593.21,1982.32c0-1.43,0.44-2.66,1.31-3.69c0.87-1.03,2.18-1.55,3.94-1.55h38.92
				c1.11,0,2.26,0.28,3.45,0.83c1.19,0.56,2.22,1.51,3.1,2.86c10.07,16.27,20.08,32.3,29.99,48.09
				c9.92,15.79,19.97,31.82,30.12,48.09v-95.36c0.32-1.43,0.95-2.54,1.91-3.34c0.95-0.79,2.06-1.19,3.33-1.19h33.93
				c1.67,0,3.05,0.46,4.16,1.37c1.11,0.92,1.67,2.21,1.67,3.87v166.91c0,1.59-0.48,2.76-1.43,3.51c-0.95,0.75-2.26,1.13-3.93,1.13
				h-37.97c-1.04,0-1.95-0.36-2.75-1.07c-0.79-0.71-1.63-1.67-2.5-2.86c-10.56-17.46-20.99-34.73-31.31-51.79
				c-10.32-17.06-20.79-34.32-31.43-51.79v102.27c0,1.74-0.4,3.05-1.19,3.93c-0.79,0.87-2.22,1.31-4.28,1.31h-33.81
				c-1.83,0-3.16-0.5-4-1.49s-1.25-2.2-1.25-3.63V1982.32z"/>
		</g>
	</g>
	<g>
		<g>
			<path class="st0" d="M1884.68,2320.97v7.54c0,0.93-0.48,1.39-1.44,1.39h-42.74c-0.93,0-1.39-0.46-1.39-1.39v-67.43
				c0-0.93,0.46-1.39,1.39-1.39h8.02c0.9,0,1.34,0.46,1.34,1.39v58.5h33.43C1884.22,2319.58,1884.68,2320.04,1884.68,2320.97z"/>
			<path class="st0" d="M1911.58,2276.62c3.22-5.55,7.6-9.94,13.16-13.16c5.55-3.22,11.66-4.83,18.32-4.83
				c6.66,0,12.77,1.61,18.32,4.83c5.55,3.22,9.94,7.6,13.16,13.16c3.22,5.56,4.83,11.68,4.83,18.37c0,6.66-1.61,12.75-4.83,18.27
				c-3.22,5.52-7.6,9.89-13.16,13.09c-5.56,3.2-11.66,4.8-18.32,4.8c-6.66,0-12.77-1.6-18.32-4.8c-5.56-3.2-9.94-7.56-13.16-13.09
				c-3.22-5.52-4.83-11.61-4.83-18.27C1906.75,2288.3,1908.36,2282.17,1911.58,2276.62z M1920.97,2307.81
				c2.24,3.88,5.31,6.93,9.2,9.17c3.89,2.24,8.19,3.36,12.9,3.36c4.67,0,8.96-1.12,12.85-3.36c3.89-2.24,6.96-5.3,9.22-9.17
				c2.26-3.87,3.39-8.15,3.39-12.82s-1.13-8.96-3.39-12.87c-2.26-3.91-5.33-6.99-9.22-9.25c-3.89-2.26-8.17-3.39-12.85-3.39
				c-4.71,0-9,1.13-12.9,3.39c-3.89,2.26-6.96,5.34-9.2,9.25c-2.24,3.91-3.36,8.2-3.36,12.87S1918.73,2303.94,1920.97,2307.81z"/>
			<path class="st0" d="M2064.64,2260.89c0,0.29-0.06,0.58-0.19,0.86l-26.99,66.56c-0.16,0.51-0.45,0.92-0.86,1.22
				c-0.42,0.3-0.85,0.46-1.3,0.46h-5.96c-0.48,0-0.92-0.15-1.32-0.46c-0.4-0.3-0.7-0.7-0.89-1.18l-26.94-66.56
				c-0.13-0.29-0.19-0.58-0.19-0.86c0-0.38,0.13-0.69,0.38-0.91c0.26-0.22,0.64-0.34,1.15-0.34h8.02c0.48,0,0.9,0.15,1.27,0.46
				c0.37,0.3,0.63,0.7,0.79,1.18l20.65,52.92l20.75-52.97c0.16-0.48,0.42-0.86,0.79-1.15c0.37-0.29,0.78-0.43,1.22-0.43h8.07
				C2064.13,2259.69,2064.64,2260.09,2064.64,2260.89z"/>
			<path class="st0" d="M2093.77,2261.51c0-1.18,0.61-1.78,1.82-1.78h44.33c0.61,0,1.08,0.15,1.42,0.46c0.34,0.3,0.5,0.74,0.5,1.32
				v6.44c0,0.58-0.17,1.02-0.5,1.34c-0.34,0.32-0.81,0.48-1.42,0.48h-35.35v19.55h28.14c0.67,0,1.19,0.15,1.56,0.46
				c0.37,0.3,0.55,0.74,0.55,1.32v6.44c0,0.54-0.19,0.98-0.58,1.3c-0.38,0.32-0.9,0.48-1.54,0.48h-28.14v20.51h35.78
				c0.77,0,1.38,0.19,1.83,0.58c0.45,0.38,0.67,0.93,0.67,1.63l-0.05,6.05c0.03,0.58-0.14,1.03-0.5,1.34
				c-0.37,0.32-0.84,0.48-1.42,0.48h-45.29c-1.22,0-1.82-0.61-1.82-1.83V2261.51z"/>
			<path class="st0" d="M2267.25,2260.79c0,0.29-0.1,0.66-0.29,1.1l-23,39.81v26.41c0,1.22-0.58,1.83-1.73,1.83h-7.3
				c-0.58,0-1.02-0.15-1.34-0.46c-0.32-0.3-0.48-0.76-0.48-1.37v-26.41l-23-39.86c-0.22-0.42-0.34-0.78-0.34-1.1
				c0-0.32,0.14-0.58,0.41-0.77c0.27-0.19,0.65-0.29,1.13-0.29h8.55c0.42,0,0.81,0.14,1.18,0.41c0.37,0.27,0.68,0.65,0.94,1.13
				l16.57,29.54l16.52-29.54c0.26-0.51,0.58-0.9,0.96-1.15c0.38-0.26,0.8-0.38,1.25-0.38h8.5
				C2266.75,2259.69,2267.25,2260.06,2267.25,2260.79z"/>
			<path class="st0" d="M2293.48,2276.62c3.22-5.55,7.6-9.94,13.16-13.16c5.55-3.22,11.66-4.83,18.32-4.83
				c6.66,0,12.77,1.61,18.32,4.83c5.55,3.22,9.94,7.6,13.16,13.16c3.22,5.56,4.83,11.68,4.83,18.37c0,6.66-1.61,12.75-4.83,18.27
				c-3.22,5.52-7.6,9.89-13.16,13.09c-5.56,3.2-11.66,4.8-18.32,4.8c-6.66,0-12.77-1.6-18.32-4.8c-5.56-3.2-9.94-7.56-13.16-13.09
				c-3.22-5.52-4.83-11.61-4.83-18.27C2288.65,2288.3,2290.26,2282.17,2293.48,2276.62z M2302.86,2307.81
				c2.24,3.88,5.31,6.93,9.2,9.17c3.89,2.24,8.19,3.36,12.9,3.36c4.67,0,8.96-1.12,12.85-3.36c3.89-2.24,6.96-5.3,9.22-9.17
				c2.26-3.87,3.39-8.15,3.39-12.82s-1.13-8.96-3.39-12.87c-2.26-3.91-5.33-6.99-9.22-9.25c-3.89-2.26-8.17-3.39-12.85-3.39
				c-4.71,0-9,1.13-12.9,3.39c-3.89,2.26-6.96,5.34-9.2,9.25c-2.24,3.91-3.36,8.2-3.36,12.87S2300.62,2303.94,2302.86,2307.81z"/>
			<path class="st0" d="M2400.67,2301.81c0,3.62,0.75,6.86,2.26,9.73c1.5,2.87,3.63,5.11,6.36,6.75s5.88,2.45,9.44,2.45
				c3.55,0,6.69-0.82,9.41-2.45c2.72-1.63,4.83-3.88,6.32-6.75s2.23-6.11,2.23-9.73v-40.63c0-0.99,0.5-1.49,1.49-1.49h7.83
				c0.99,0,1.49,0.5,1.49,1.49v40.72c0,5.86-1.19,11.01-3.58,15.44c-2.39,4.43-5.76,7.87-10.11,10.3
				c-4.35,2.43-9.38,3.65-15.08,3.65c-5.89,0-11.01-1.22-15.37-3.65c-4.35-2.43-7.69-5.88-10.01-10.35
				c-2.32-4.47-3.48-9.66-3.48-15.58v-40.53c0-0.99,0.45-1.49,1.34-1.49h8.12c0.9,0,1.34,0.5,1.34,1.49V2301.81z"/>
			<path class="st0" d="M2529.36,2328.61c0,0.38-0.13,0.71-0.38,0.96c-0.26,0.26-0.59,0.38-1.01,0.38h-8.79
				c-0.45,0-0.82-0.11-1.13-0.34c-0.3-0.22-0.62-0.61-0.94-1.15l-11.67-22.14h-0.82h-13.45v21.8c0,0.58-0.15,1.03-0.46,1.34
				c-0.3,0.32-0.74,0.48-1.32,0.48h-7.25c-1.15,0-1.73-0.61-1.73-1.83v-66.56c0-0.54,0.16-0.98,0.48-1.32
				c0.32-0.34,0.74-0.5,1.25-0.5h1.87h5.62h14.98c4.67,0,8.85,0.98,12.53,2.93c3.68,1.95,6.55,4.71,8.6,8.26
				c2.05,3.55,3.07,7.62,3.07,12.2c0,4.74-1.11,8.91-3.34,12.51c-2.23,3.6-5.29,6.33-9.2,8.19l12.87,24.06
				C2529.3,2328.11,2529.36,2328.35,2529.36,2328.61z M2491.18,2296.04h13.45c2.56,0,4.86-0.56,6.89-1.68
				c2.03-1.12,3.62-2.66,4.75-4.61c1.14-1.95,1.71-4.16,1.71-6.63c0-2.53-0.57-4.79-1.71-6.77c-1.14-1.99-2.72-3.54-4.75-4.66
				c-2.03-1.12-4.33-1.68-6.89-1.68h-13.45V2296.04z"/>
			<path class="st0" d="M2652.12,2314.58c0.54,0,0.96,0.19,1.25,0.58l4.23,6.2c0.13,0.16,0.19,0.37,0.19,0.63
				c0,0.32-0.09,0.63-0.26,0.94c-0.18,0.3-0.42,0.57-0.74,0.79c-2.75,2.31-6.08,4.13-9.99,5.47c-3.91,1.34-7.72,2.02-11.43,2.02
				c-6.69,0-12.85-1.62-18.47-4.85c-5.62-3.23-10.06-7.62-13.33-13.16c-3.27-5.54-4.9-11.62-4.9-18.25c0-6.66,1.63-12.77,4.9-18.32
				c3.27-5.55,7.71-9.95,13.33-13.18c5.62-3.23,11.77-4.85,18.47-4.85c3.55,0,7.29,0.69,11.21,2.07c3.92,1.38,7.39,3.2,10.4,5.47
				c0.64,0.51,0.96,1.06,0.96,1.63c0,0.29-0.08,0.54-0.24,0.77l-4.32,6.1c-0.26,0.42-0.66,0.63-1.2,0.63
				c-0.48,0-0.96-0.19-1.44-0.58c-2.34-1.73-4.86-3.1-7.56-4.11c-2.71-1.01-5.31-1.51-7.8-1.51c-4.74,0-9.08,1.15-13.02,3.46
				c-3.94,2.3-7.06,5.43-9.36,9.39s-3.46,8.3-3.46,13.04c0,4.71,1.15,9.03,3.46,12.97c2.31,3.94,5.43,7.05,9.39,9.34
				c3.95,2.29,8.28,3.43,12.99,3.43c2.5,0,5.1-0.5,7.8-1.49c2.71-0.99,5.18-2.35,7.42-4.08
				C2651.1,2314.76,2651.61,2314.58,2652.12,2314.58z"/>
			<path class="st0" d="M2735.52,2320.97v7.54c0,0.93-0.48,1.39-1.44,1.39h-42.74c-0.93,0-1.39-0.46-1.39-1.39v-67.43
				c0-0.93,0.46-1.39,1.39-1.39h8.02c0.9,0,1.34,0.46,1.34,1.39v58.5h33.43C2735.06,2319.58,2735.52,2320.04,2735.52,2320.97z"/>
			<path class="st0" d="M2762.42,2276.62c3.22-5.55,7.6-9.94,13.16-13.16c5.55-3.22,11.66-4.83,18.32-4.83
				c6.66,0,12.77,1.61,18.32,4.83c5.55,3.22,9.94,7.6,13.16,13.16c3.22,5.56,4.83,11.68,4.83,18.37c0,6.66-1.61,12.75-4.83,18.27
				c-3.22,5.52-7.6,9.89-13.16,13.09c-5.56,3.2-11.66,4.8-18.32,4.8c-6.66,0-12.77-1.6-18.32-4.8c-5.56-3.2-9.94-7.56-13.16-13.09
				c-3.22-5.52-4.83-11.61-4.83-18.27C2757.59,2288.3,2759.2,2282.17,2762.42,2276.62z M2771.81,2307.81
				c2.24,3.88,5.31,6.93,9.2,9.17c3.89,2.24,8.19,3.36,12.9,3.36c4.67,0,8.96-1.12,12.85-3.36c3.89-2.24,6.96-5.3,9.22-9.17
				c2.26-3.87,3.39-8.15,3.39-12.82s-1.13-8.96-3.39-12.87c-2.26-3.91-5.33-6.99-9.22-9.25c-3.89-2.26-8.17-3.39-12.85-3.39
				c-4.71,0-9,1.13-12.9,3.39c-3.89,2.26-6.96,5.34-9.2,9.25c-2.24,3.91-3.36,8.2-3.36,12.87S2769.57,2303.94,2771.81,2307.81z"/>
			<path class="st0" d="M2851.9,2261.51c0-0.58,0.16-1.02,0.48-1.32c0.32-0.3,0.77-0.46,1.34-0.46h45.86c0.54,0,0.98,0.16,1.3,0.48
				c0.32,0.32,0.48,0.75,0.48,1.3v6.92c0,0.58-0.16,1.03-0.48,1.37c-0.32,0.34-0.75,0.5-1.3,0.5h-17.48v58.21
				c0,0.61-0.16,1.06-0.48,1.37c-0.32,0.3-0.77,0.46-1.34,0.46h-7.2c-0.58,0-1.02-0.15-1.34-0.46c-0.32-0.3-0.48-0.76-0.48-1.37
				v-58.21h-17.53c-0.54,0-0.98-0.16-1.32-0.48c-0.34-0.32-0.5-0.77-0.5-1.34V2261.51z"/>
			<path class="st0" d="M2989.16,2260.05c0.24,0.24,0.36,0.58,0.36,1.03v67.52c0,0.42-0.12,0.74-0.36,0.98s-0.58,0.36-1.03,0.36
				h-8.02c-0.45,0-0.8-0.12-1.06-0.36c-0.26-0.24-0.38-0.57-0.38-0.98v-28.67h-36.88v28.67c0,0.9-0.45,1.34-1.34,1.34h-8.07
				c-0.45,0-0.79-0.12-1.03-0.36s-0.36-0.57-0.36-0.98v-67.52c0-0.45,0.12-0.79,0.36-1.03s0.58-0.36,1.03-0.36h8.07
				c0.9,0,1.34,0.46,1.34,1.39v28.48h36.88v-28.48c0-0.93,0.48-1.39,1.44-1.39h8.02
				C2988.57,2259.69,2988.92,2259.81,2989.16,2260.05z"/>
			<path class="st0" d="M3024.75,2261.51c0-1.18,0.61-1.78,1.82-1.78h44.33c0.61,0,1.08,0.15,1.42,0.46c0.34,0.3,0.5,0.74,0.5,1.32
				v6.44c0,0.58-0.17,1.02-0.5,1.34c-0.34,0.32-0.81,0.48-1.42,0.48h-35.35v19.55h28.14c0.67,0,1.19,0.15,1.56,0.46
				c0.37,0.3,0.55,0.74,0.55,1.32v6.44c0,0.54-0.19,0.98-0.58,1.3c-0.38,0.32-0.9,0.48-1.54,0.48h-28.14v20.51h35.78
				c0.77,0,1.38,0.19,1.83,0.58c0.45,0.38,0.67,0.93,0.67,1.63l-0.05,6.05c0.03,0.58-0.14,1.03-0.5,1.34
				c-0.37,0.32-0.84,0.48-1.42,0.48h-45.29c-1.22,0-1.82-0.61-1.82-1.83V2261.51z"/>
			<path class="st0" d="M3101.33,2320.59c0-0.38,0.14-0.78,0.43-1.2l3.94-5.71c0.42-0.54,0.88-0.82,1.39-0.82
				c0.42,0,0.88,0.16,1.39,0.48c2.24,1.82,5.04,3.36,8.4,4.61c3.36,1.25,6.95,1.87,10.76,1.87c3.01,0,5.74-0.4,8.19-1.2
				c2.45-0.8,4.39-1.97,5.81-3.51c1.42-1.54,2.14-3.39,2.14-5.57c0-2.11-0.81-3.88-2.43-5.31s-3.59-2.55-5.93-3.39
				c-2.34-0.83-5.3-1.71-8.88-2.64c-4.9-1.31-8.95-2.74-12.15-4.27c-3.2-1.54-5.71-3.54-7.52-6c-1.81-2.47-2.71-5.55-2.71-9.27
				c0-4.07,1.05-7.58,3.15-10.54c2.1-2.96,5.02-5.22,8.76-6.77c3.75-1.55,8.05-2.33,12.92-2.33c4.23,0,8.29,0.58,12.2,1.75
				c3.91,1.17,7.25,2.83,10.04,4.97c0.54,0.45,0.82,0.94,0.82,1.49c0,0.38-0.14,0.8-0.43,1.25l-3.99,5.71
				c-0.42,0.58-0.91,0.86-1.49,0.86c-0.35,0-0.82-0.16-1.39-0.48c-1.89-1.15-3.55-2.06-4.99-2.71c-1.44-0.66-3.02-1.15-4.73-1.49
				c-1.71-0.34-3.72-0.5-6.03-0.5c-2.53,0-4.86,0.36-6.99,1.08c-2.13,0.72-3.83,1.75-5.09,3.07c-1.27,1.33-1.9,2.87-1.9,4.63
				c0,1.89,0.7,3.47,2.11,4.73c1.41,1.27,3.1,2.25,5.07,2.95c1.97,0.7,4.47,1.44,7.52,2.21c5.44,1.54,9.89,3.08,13.35,4.63
				s6.26,3.65,8.4,6.29c2.14,2.64,3.22,6,3.22,10.06c0,4.32-1.19,8.08-3.58,11.26c-2.39,3.19-5.63,5.62-9.73,7.3
				c-4.1,1.68-8.68,2.52-13.74,2.52c-4.93,0-9.38-0.69-13.35-2.07c-3.97-1.38-7.94-3.49-11.91-6.34
				C3101.68,2321.74,3101.33,2321.19,3101.33,2320.59z"/>
			<path class="st0" d="M3273.12,2320.97v7.54c0,0.93-0.48,1.39-1.44,1.39h-42.74c-0.93,0-1.39-0.46-1.39-1.39v-67.43
				c0-0.93,0.46-1.39,1.39-1.39h8.02c0.9,0,1.34,0.46,1.34,1.39v58.5h33.43C3272.66,2319.58,3273.12,2320.04,3273.12,2320.97z"/>
			<path class="st0" d="M3300.02,2276.62c3.22-5.55,7.6-9.94,13.16-13.16c5.55-3.22,11.66-4.83,18.32-4.83
				c6.66,0,12.77,1.61,18.32,4.83c5.55,3.22,9.94,7.6,13.16,13.16c3.22,5.56,4.83,11.68,4.83,18.37c0,6.66-1.61,12.75-4.83,18.27
				c-3.22,5.52-7.6,9.89-13.16,13.09c-5.56,3.2-11.66,4.8-18.32,4.8c-6.66,0-12.77-1.6-18.32-4.8c-5.56-3.2-9.94-7.56-13.16-13.09
				c-3.22-5.52-4.83-11.61-4.83-18.27C3295.2,2288.3,3296.81,2282.17,3300.02,2276.62z M3309.41,2307.81
				c2.24,3.88,5.31,6.93,9.2,9.17c3.89,2.24,8.19,3.36,12.9,3.36c4.67,0,8.96-1.12,12.85-3.36c3.89-2.24,6.96-5.3,9.22-9.17
				c2.26-3.87,3.39-8.15,3.39-12.82s-1.13-8.96-3.39-12.87c-2.26-3.91-5.33-6.99-9.22-9.25c-3.89-2.26-8.17-3.39-12.85-3.39
				c-4.71,0-9,1.13-12.9,3.39c-3.89,2.26-6.96,5.34-9.2,9.25c-2.24,3.91-3.36,8.2-3.36,12.87S3307.17,2303.94,3309.41,2307.81z"/>
			<path class="st0" d="M3458.7,2261.08v67.52c0,0.9-0.46,1.34-1.39,1.34h-7.64c-1.09,0-1.95-0.48-2.59-1.44l-37.56-52.78v52.88
				c0,0.9-0.45,1.34-1.34,1.34h-8.02c-0.93,0-1.39-0.45-1.39-1.34v-67.52c0-0.93,0.46-1.39,1.39-1.39h8.31
				c0.99,0,1.86,0.54,2.59,1.63l36.88,51.05v-51.29c0-0.93,0.45-1.39,1.34-1.39h8.02C3458.24,2259.69,3458.7,2260.15,3458.7,2261.08
				z"/>
			<path class="st0" d="M3533.19,2319.14c2.58-0.83,4.75-1.84,6.51-3.03v-16.91c0-0.54,0.17-1.01,0.5-1.39
				c0.34-0.38,0.76-0.58,1.27-0.58h6.77c0.48,0,0.9,0.19,1.25,0.58c0.35,0.38,0.53,0.85,0.53,1.39v23.05c0,0.38-0.1,0.77-0.29,1.15
				c-0.19,0.38-0.42,0.67-0.67,0.86c-2.75,1.92-6.32,3.55-10.71,4.9c-4.39,1.34-8.39,2.02-12.01,2.02c-6.72,0-12.89-1.61-18.49-4.83
				c-5.6-3.22-10.03-7.59-13.28-13.13c-3.25-5.54-4.87-11.65-4.87-18.35c0-6.66,1.62-12.76,4.87-18.3
				c3.25-5.54,7.67-9.92,13.25-13.13c5.59-3.22,11.74-4.83,18.47-4.83c3.65,0,7.46,0.63,11.43,1.9c3.97,1.26,7.41,3.08,10.33,5.45
				c0.51,0.42,0.77,0.91,0.77,1.49c0,0.42-0.11,0.75-0.34,1.01l-4.13,6.2c-0.29,0.48-0.72,0.72-1.3,0.72c-0.45,0-0.85-0.16-1.2-0.48
				c-2.18-1.86-4.67-3.23-7.47-4.13c-2.8-0.9-5.48-1.34-8.04-1.34c-4.74,0-9.08,1.13-13.01,3.39c-3.94,2.26-7.05,5.33-9.34,9.22
				c-2.29,3.89-3.43,8.17-3.43,12.85c0,4.71,1.14,9,3.43,12.9c2.29,3.89,5.4,6.96,9.34,9.22c3.94,2.26,8.28,3.39,13.01,3.39
				C3528.34,2320.39,3530.62,2319.98,3533.19,2319.14z"/>
			<path class="st0" d="M3582.57,2261.51c0-1.18,0.61-1.78,1.82-1.78h44.33c0.61,0,1.08,0.15,1.42,0.46c0.34,0.3,0.5,0.74,0.5,1.32
				v6.44c0,0.58-0.17,1.02-0.5,1.34c-0.34,0.32-0.81,0.48-1.42,0.48h-35.35v19.55h28.14c0.67,0,1.19,0.15,1.56,0.46
				c0.37,0.3,0.55,0.74,0.55,1.32v6.44c0,0.54-0.19,0.98-0.58,1.3c-0.38,0.32-0.9,0.48-1.54,0.48h-28.14v20.51h35.78
				c0.77,0,1.38,0.19,1.83,0.58c0.45,0.38,0.67,0.93,0.67,1.63l-0.05,6.05c0.03,0.58-0.14,1.03-0.5,1.34
				c-0.37,0.32-0.84,0.48-1.42,0.48h-45.29c-1.22,0-1.82-0.61-1.82-1.83V2261.51z"/>
			<path class="st0" d="M3711.93,2328.61c0,0.38-0.13,0.71-0.38,0.96c-0.26,0.26-0.59,0.38-1.01,0.38h-8.79
				c-0.45,0-0.82-0.11-1.13-0.34c-0.3-0.22-0.62-0.61-0.94-1.15l-11.67-22.14h-0.82h-13.45v21.8c0,0.58-0.15,1.03-0.46,1.34
				c-0.3,0.32-0.74,0.48-1.32,0.48h-7.25c-1.15,0-1.73-0.61-1.73-1.83v-66.56c0-0.54,0.16-0.98,0.48-1.32
				c0.32-0.34,0.74-0.5,1.25-0.5h1.87h5.62h14.98c4.67,0,8.85,0.98,12.53,2.93c3.68,1.95,6.55,4.71,8.6,8.26
				c2.05,3.55,3.07,7.62,3.07,12.2c0,4.74-1.11,8.91-3.34,12.51c-2.23,3.6-5.29,6.33-9.2,8.19l12.87,24.06
				C3711.87,2328.11,3711.93,2328.35,3711.93,2328.61z M3673.75,2296.04h13.45c2.56,0,4.86-0.56,6.89-1.68
				c2.03-1.12,3.62-2.66,4.75-4.61c1.14-1.95,1.71-4.16,1.71-6.63c0-2.53-0.57-4.79-1.71-6.77c-1.14-1.99-2.72-3.54-4.75-4.66
				c-2.03-1.12-4.33-1.68-6.89-1.68h-13.45V2296.04z"/>
		</g>
	</g>
</g>
</svg>
