<?xml version="1.0" encoding="UTF-8" standalone="no"?>
<!-- Created with Inkscape (http://www.inkscape.org/) -->
<svg
   xmlns:svg="http://www.w3.org/2000/svg"
   xmlns="http://www.w3.org/2000/svg"
   version="1.0"
   x="0.0000000"
   y="0.0000000"
   width="375.00000"
   height="150.00000"
   id="svg1">
  <defs
     id="defs3" />
  <path
     d="M 225.75629,78.981165 C 225.76000,82.662714 223.79813,86.066308 220.61043,87.908268 C 217.42264,89.750108 213.49413,89.750108 210.30639,87.908268 C 207.11866,86.066308 205.15670,82.662714 205.16053,78.981165 C 205.15670,75.299580 207.11866,71.896017 210.30639,70.054126 C 213.49413,68.212235 217.42264,68.212235 220.61043,70.054126 C 223.79813,71.896017 225.76000,75.299580 225.75629,78.981165 z "
     style="fill:#000000;fill-opacity:1.0000000;fill-rule:evenodd;stroke:#000000;stroke-width:6.7966018;stroke-linecap:butt;stroke-linejoin:miter;stroke-miterlimit:4.0000000;stroke-opacity:1.0000000"
     id="path2207" />
  <path
     d="M 171.27706,78.981165 C 171.28082,82.662714 169.31890,86.066308 166.13119,87.908268 C 162.94347,89.750108 159.01494,89.750108 155.82723,87.908268 C 152.63951,86.066308 150.67759,82.662714 150.68137,78.981165 C 150.67759,75.299580 152.63951,71.896017 155.82723,70.054126 C 159.01494,68.212235 162.94347,68.212235 166.13119,70.054126 C 169.31890,71.896017 171.28082,75.299580 171.27706,78.981165 z "
     style="fill:#000000;fill-opacity:1.0000000;fill-rule:evenodd;stroke:#000000;stroke-width:6.7966018;stroke-linecap:butt;stroke-linejoin:miter;stroke-miterlimit:4.0000000;stroke-opacity:1.0000000"
     id="path2208" />
</svg>
