<?xml version="1.0" encoding="UTF-8" standalone="no"?>
<!-- Created with Inkscape (http://www.inkscape.org/) -->
<svg
   xmlns:svg="http://www.w3.org/2000/svg"
   xmlns="http://www.w3.org/2000/svg"
   version="1.0"
   width="800"
   height="600"
   id="svg2">
  <defs
     id="defs4" />
  <g
     transform="translate(71.428574,79.066391)"
     id="layer1">
    <path
       d="M 559.57142,220.93361 C 559.57142,348.44561 456.08342,451.93361 328.57142,451.93361 C 201.05942,451.93361 97.571424,348.44561 97.571424,220.93361 C 97.571424,93.421614 201.05942,-10.066386 328.57142,-10.066386 C 456.08342,-10.066386 559.57142,93.421614 559.57142,220.93361 z M 76.428558,-31.209259 L 580.71429,-31.209259 L 580.71429,473.07648 L 76.428558,473.07648 L 76.428558,-31.209259 z "
       style="fill:none;stroke:#000000;stroke-width:8;stroke-linejoin:round"
       id="path" />
    <path
       d="M 537.14286 -360 A 94.285713 94.285713 0 1 1  348.57143,-360 A 94.285713 94.285713 0 1 1  537.14286 -360 z"
       transform="matrix(0.2386364,0,0,0.2386364,222.88959,306.84271)"
       style="fill:#000000;stroke:none"
       id="dot" />
  </g>
</svg>
