<?xml version="1.0" encoding="UTF-8" standalone="no"?>
<!-- Created with Inkscape (http://www.inkscape.org/) -->
<svg
   xmlns:svg="http://www.w3.org/2000/svg"
   xmlns="http://www.w3.org/2000/svg"
   version="1.0"
   width="800"
   height="600"
   id="svg2">
  <defs
     id="defs5" />
  <path
     d="M 126.2,471.8 C 124.25606,469.85606 124.735,466.64068 129.99415,446.32811 C 146.44143,382.80324 163.65371,343.34812 178.0005,336.28476 C 190.8604,329.95344 221.92038,326.33386 283.5,323.99034 C 338.68712,321.8901 495.16579,323.16714 605.75,326.62026 C 620.44464,327.07912 628,326.97394 628,326.31052 C 628,325.24074 609.70429,270.50129 595.89344,230.25 L 587.57288,206 L 419.82395,206 L 252.07503,206 L 246.32587,208.15103 C 238.24251,211.17541 226.83948,222.7149 222.00873,232.75919 C 218.36344,240.3386 215.87861,242.30718 213.26093,239.6895 C 207.74691,234.17548 225.10087,209.63893 240,201.88346 L 246.5,198.5 L 419.08495,198.23888 C 582.80788,197.99116 591.74833,198.06819 593.1974,199.73888 C 595.37286,202.24706 606.89535,235.82285 656.08867,383 C 671.4389,428.925 683.99859,467.4225 683.99909,468.55 C 683.99959,469.6775 683.46,471.14 682.8,471.8 C 681.05217,473.54783 127.94783,473.54783 126.2,471.8 z M 674,463.8704 C 674,463.24911 664.50206,434.2445 652.89347,399.41569 L 631.78694,336.0906 L 627.64347,335.59499 C 625.36456,335.32241 603.475,334.60668 579,334.00449 C 342.04248,328.17428 213.00718,331.01031 183.81646,342.69011 C 172.73906,347.12241 159.94409,373.1675 145.92717,419.81652 C 141.66375,434.00537 134,462.68387 134,464.44913 C 134,464.75211 255.5,465 404,465 C 603.98544,465 674,464.70708 674,463.8704 z M 351.23559,418.05821 C 341.72963,415.6951 334.8,406.90025 334.8,397.19872 C 334.8,390.19115 336.60902,385.54483 341.07692,381.07692 C 345.50497,376.64888 349.70789,375 356.56675,375 C 365.51128,375 373.22786,379.99329 376.65681,388 C 379.03242,393.54714 378.09665,403.74446 374.74758,408.80524 C 369.96397,416.03377 359.56091,420.12782 351.23559,418.05821 z M 427.42926,417.10719 C 417.09096,412.41164 412.11393,398.93339 416.86566,388.5 C 419.35912,383.02511 425.6109,377.64885 431.35362,376.04098 C 439.09328,373.87401 446.25561,375.93506 452.18284,382.03485 C 458.61223,388.6514 460.40008,395.59491 457.85857,404.07772 C 454.24234,416.14762 439.35326,422.52295 427.42926,417.10719 z "
     style="fill:#000000"
     id="path2162" />
</svg>
