<?xml version="1.0" encoding="UTF-8" standalone="no"?>
<!-- Created with Inkscape (http://www.inkscape.org/) -->
<svg
   xmlns:svg="http://www.w3.org/2000/svg"
   xmlns="http://www.w3.org/2000/svg"
   version="1.0"
   width="961.66711"
   height="689.63409"
   id="svg2">
  <defs
     id="defs5" />
  <path
     d="M 1.9170952,688.50417 C 0.23965517,686.79981 0.33421517,683.10984 2.1006152,681.34345 C 2.8890452,680.55501 27.639045,662.69879 57.100615,641.66295 C 90.660325,617.701 110.66476,602.80309 110.66083,601.77504 C 110.65738,600.87253 107.77045,583.48411 104.24543,563.13411 C 100.7204,542.78411 94.445545,506.55911 90.301315,482.63411 C 86.157075,458.70911 80.062585,423.60911 76.757995,404.63411 C 73.453405,385.65911 65.093395,337.50911 58.180205,297.63411 C 51.267005,257.75911 43.607515,213.65911 41.159105,199.63411 C 38.710695,185.60911 34.912665,163.78411 32.719025,151.13411 C 30.525385,138.48411 26.016305,112.51438 22.698845,93.423596 C 19.381385,74.332808 16.667095,57.865055 16.667095,56.828585 C 16.667095,53.899755 20.157435,51.289375 23.089565,52.025295 C 24.901645,52.480095 25.888325,53.686055 26.663765,56.393815 C 27.720015,60.082155 45.667095,162.51963 45.667095,164.86014 C 45.667095,165.52325 48.029595,163.76161 50.917095,160.94538 C 64.351335,147.84276 75.477645,143.13408 92.667095,143.27668 C 105.0106,143.37908 112.49874,145.42417 120.8661,150.9781 C 123.94645,153.02272 133.99733,162.81349 143.76192,173.28139 C 154.52028,184.81464 163.38846,193.38753 166.9839,195.73013 C 174.18513,200.42207 181.50406,202.04805 192.37665,201.3714 C 204.54355,200.61419 211.48478,197.03843 223.32227,185.42982 C 228.46193,180.38954 232.6524,175.78607 232.63443,175.19989 C 232.61647,174.61371 180.58663,137.00911 117.01257,91.634106 C 53.438515,46.259105 0.98191517,8.1785253 0.44235517,7.0106053 C -1.6545948,2.4715753 4.1243652,-1.7785047 8.9376152,0.76284527 C 10.163825,1.4102753 62.017095,38.252725 124.1671,82.634958 C 186.3171,127.01719 238.14718,163.93637 239.34506,164.67758 C 241.37301,165.93241 242.03674,165.53725 248.98147,158.94044 C 262.56806,146.0345 277.19741,141.14509 295.2525,143.47577 C 300.99558,144.21713 305.92918,145.60807 310.46024,147.76332 C 317.47299,151.09901 319.63031,153.08582 347.67162,182.03346 C 363.99955,198.88913 368.19465,201.11429 383.6671,201.1261 C 389.4421,201.1305 396.0372,200.56568 398.32287,199.87094 C 406.13104,197.4976 413.92351,191.04385 430.44098,173.27062 C 448.33223,154.01917 454.87122,148.91646 466.1671,145.39168 C 476.11011,142.28905 490.53948,142.32263 500.23182,145.47095 C 510.1788,148.70199 516.77479,154.12518 537.16379,175.83621 C 552.54033,192.20978 555.56114,194.94892 561.42606,197.83621 C 567.83407,200.99086 568.62772,201.13411 579.69794,201.13411 C 591.07031,201.13411 591.40324,201.06867 598.91355,197.35687 C 605.85191,193.92775 608.05232,191.99239 622.78949,176.35687 C 645.12253,152.66246 648.78623,149.69265 660.83839,145.5143 C 665.73401,143.81704 669.54475,143.30868 677.6671,143.26931 C 694.83241,143.1861 703.38191,146.61945 716.10561,158.70564 L 723.32801,165.56631 L 838.24761,83.443218 C 901.45331,38.275515 953.96941,1.1094153 954.95001,0.85188527 C 957.28161,0.23952527 960.66711,3.3560153 960.66711,6.1147853 C 960.66711,7.3086653 959.65461,9.1949953 958.41711,10.306625 C 957.17961,11.418255 905.54211,48.462015 843.66711,92.626096 C 781.79211,136.79019 730.99871,173.06503 730.79281,173.23686 C 729.91831,173.96694 747.26601,191.80071 751.99501,195.0331 C 761.12491,201.27357 774.93291,203.2787 787.04741,200.12326 C 797.96761,197.27892 801.97361,194.03711 824.99141,169.41723 C 838.96061,154.47573 846.26021,148.89557 855.90091,145.78835 C 876.69211,139.08727 896.52951,143.7223 911.45771,158.76925 C 916.25711,163.60684 918.75481,165.50432 919.06951,164.55182 C 919.52661,163.16828 923.93761,138.20833 933.19291,84.634108 C 938.56641,53.529835 939.01851,51.835005 942.15171,51.048625 C 945.57711,50.188905 948.66711,52.222825 948.66711,55.337215 C 948.66711,57.742445 945.79951,74.544038 933.17071,146.13411 C 930.74511,159.88411 925.56711,189.35911 921.66411,211.63411 C 917.76101,233.90911 912.58561,263.38411 910.16311,277.13411 C 907.74061,290.88411 901.88791,324.18411 897.15711,351.13411 C 892.42621,378.08411 885.23341,419.03411 881.17301,442.13411 C 877.11261,465.23411 871.73901,495.83411 869.23171,510.13411 C 866.72431,524.43411 862.04491,550.98411 858.83301,569.13411 C 855.62101,587.28411 853.17061,602.58411 853.38761,603.13411 C 853.60461,603.68411 876.54171,620.33411 904.35901,640.13411 C 932.17631,659.93411 956.45041,677.53724 958.30151,679.25219 C 960.15261,680.96713 961.66711,683.29749 961.66711,684.43076 C 961.66711,687.18257 959.07291,689.63411 956.16101,689.63411 C 954.65321,689.63411 935.27251,676.40264 902.61941,653.08053 C 874.47121,632.97607 851.20601,616.76186 850.91891,617.04897 C 850.63181,617.33607 848.06411,630.74768 845.21301,646.85254 C 842.36181,662.9574 839.38511,677.17217 838.59811,678.44091 C 837.81101,679.70964 835.59211,681.73464 833.66711,682.94091 L 830.16711,685.13411 L 484.1671,685.41864 C 293.8671,685.57514 136.71785,685.44473 134.94654,685.12885 C 131.08186,684.43966 125.85728,680.26452 124.547,676.81823 C 123.70861,674.61308 113.6671,619.02992 113.6671,616.59427 C 113.6671,616.06618 113.2283,615.63411 112.69199,615.63411 C 112.15567,615.63411 88.643165,632.14836 60.441985,652.33245 C 9.3799152,688.87847 4.9687752,691.60481 1.9170952,688.50417 z M 828.85921,672.88411 C 829.79401,671.79502 832.37461,659.50735 835.69231,640.34792 C 840.29551,613.76474 840.82831,609.3784 839.59521,608.2188 C 836.57331,605.37713 483.08101,353.29521 481.55869,352.89634 C 480.58931,352.64234 409.47285,402.81731 302.55869,479.18667 C 204.99332,548.87815 124.61012,606.41202 123.92937,607.03972 C 122.94688,607.94565 122.98979,609.82596 124.13743,616.15756 C 124.93261,620.54466 127.45638,634.93411 129.7458,648.13411 C 132.03521,661.33411 134.35919,672.69661 134.91018,673.38411 C 135.70815,674.37977 206.25747,674.63411 481.63456,674.63411 C 809.65521,674.63411 827.43401,674.54451 828.85921,672.88411 z M 297.03004,470.22902 C 393.12982,401.53122 471.39921,345.00958 470.96201,344.62537 C 470.52481,344.24117 418.94986,307.35369 356.35101,262.6532 L 242.53493,181.37958 L 231.85101,191.85449 C 215.44056,207.94391 207.0227,211.83333 188.6671,211.80736 C 176.2458,211.78979 168.75339,209.78958 160.44065,204.2719 C 157.35703,202.22511 146.95483,192.12194 136.8626,181.37165 C 117.56037,160.81083 112.14576,156.55741 102.71141,154.5443 C 94.870065,152.87111 81.214315,153.85611 75.167055,156.5311 C 68.278705,159.57815 60.978275,165.33329 54.182305,173.07401 L 48.364595,179.70047 L 51.482155,197.41729 C 54.469095,214.39176 58.622535,238.3139 82.164315,374.13411 C 87.979545,407.68411 96.296595,455.60911 100.64664,480.63411 C 104.99669,505.65911 111.06518,540.75911 114.13218,558.63411 C 120.62069,596.45023 120.50487,595.87318 121.52202,595.45515 C 121.95165,595.27858 200.93026,538.92682 297.03004,470.22902 z M 843.66711,595.23539 C 843.66711,594.74161 883.75351,366.10971 897.16101,290.13411 C 899.68451,275.83411 904.87751,246.13411 908.70091,224.13411 C 912.52431,202.13411 915.88721,183.13041 916.17401,181.90367 C 916.57701,180.17978 915.19211,178.02225 910.07611,172.40367 C 896.00541,156.95066 887.93921,153.07624 871.35411,153.80443 C 863.62031,154.144 861.08801,154.71306 855.34551,157.40193 C 848.17981,160.75715 846.50911,162.28842 819.96481,189.82946 C 809.20541,200.99291 806.78141,202.97487 799.46481,206.5911 C 784.66881,213.90408 766.29591,214.04479 751.66711,206.95715 C 745.35491,203.8989 742.38621,201.48809 732.92241,191.73492 C 722.91071,181.41716 721.46881,180.27683 719.77351,181.33561 C 714.62101,184.55337 492.13082,343.85666 491.90136,344.49235 C 491.7552,344.89727 502.1052,352.70459 514.90136,361.84193 C 527.69752,370.97928 606.55988,427.32053 690.15111,487.0447 C 773.74221,546.76888 842.47971,595.63411 842.90111,595.63411 C 843.32241,595.63411 843.66711,595.45469 843.66711,595.23539 z M 596.86998,256.00873 C 659.73339,211.11476 711.82641,173.76441 712.63221,173.00794 C 713.90361,171.81429 713.37511,170.8992 708.63221,166.08273 C 705.42691,162.82774 700.48811,159.20998 696.68811,157.33352 C 690.48651,154.27106 689.69461,154.13411 678.18813,154.13411 C 666.59832,154.13411 665.93284,154.25174 659.63667,157.41329 C 652.2267,161.13413 647.72295,165.22777 628.6671,185.5628 C 608.59479,206.98253 599.79073,211.75724 580.1671,211.86584 C 568.03324,211.93299 559.85155,209.84987 551.83078,204.6512 C 548.40244,202.42912 539.26019,193.59745 528.6671,182.27442 C 509.47515,161.76003 502.7829,156.42274 493.95448,154.58997 C 484.89306,152.70883 472.26263,153.73764 465.33121,156.92148 C 457.06741,160.71733 454.02373,163.38747 437.15002,181.64407 C 416.20688,204.30363 407.88136,209.79688 391.69316,211.63691 C 380.50253,212.90889 369.66596,211.32331 361.1671,207.1704 C 353.19951,203.27709 350.24765,200.60393 328.28295,177.39091 C 308.86126,156.86543 304.97018,154.45848 290.16332,153.81088 C 275.19552,153.15624 265.7215,156.88539 255.22739,167.56227 C 252.51055,170.32644 250.48555,172.76856 250.72739,172.98921 C 252.83642,174.91349 481.20122,337.63411 481.79276,337.63411 C 482.22181,337.63411 534.00656,300.90269 596.86998,256.00873 z "
     style="fill:#000000"
     id="path2161" />
</svg>
