<?xml version="1.0" encoding="UTF-8" standalone="no"?>
<!-- Created with Inkscape (http://www.inkscape.org/) -->
<svg
   xmlns:svg="http://www.w3.org/2000/svg"
   xmlns="http://www.w3.org/2000/svg"
   version="1.0"
   width="643"
   height="479.99902"
   viewBox="0 0 643 479.99902"
   id="svg2248"
   xml:space="preserve"><defs
   id="defs2272" />
	
		<g
   id="Ebene_1">
			<g
   id="g2253">
				<path
   d="M 0,0 L 614,0 C 611.60059,16.100098 609.2998,32.100098 607,48.199707 C 589.40039,37.799805 568.5,33.199707 548.2002,35.699707 C 529.40039,37.699707 511.40039,45.799805 497,58 C 490.7002,63.299805 485.5,69.899902 478.7002,74.699707 C 460.7002,88.299805 435.40039,91.299805 414.7998,82.100098 C 405.7002,78.299805 397.7002,72.199707 391,65 C 375.10059,48.299805 353.10059,37.199707 330,35.299805 C 301,32.399902 271.3999,44.399902 251.6001,65.600098 C 239.5,78.799805 222,87.299805 204,87.399902 C 185.3999,87.899902 167,79.600098 154.5,65.899902 C 152.30029,67.699707 150,69.399902 147.8999,71.299805 C 150,69.399902 151.80029,67 154.2002,65.299805 C 143.2002,54.5 130.30029,45.299805 115.5,40.299805 C 89.800293,31 60.200195,34 36.600098,47.799805 C 34.399902,31.799805 32,15.899902 29.700195,0 C 19.800293,1.3999023 9.8999023,2.8999023 0,4.2998047 C 19.800293,140.8999 39.700195,277.49902 59.5,414.10059 C 61,422.99902 67.5,430.89941 76,434.2002 C 81.300293,436.39941 87.300293,436.10059 93,436.10059 C 247.7002,436.10059 402.40039,436.2002 557,436.10059 C 565.40039,436.2002 573.7002,432.49902 578.7998,425.89941 C 583.7002,420.10059 584.7998,412.39941 585.5,405.10059 C 604.7002,273.2002 623.7998,141.19971 643,9.199707 L 643,479.99902 L 564.2002,479.99902 C 574.10059,478.89941 578.90039,466.7002 574.7998,458.2998 C 572.5,452.89941 566.7002,449.7998 561.10059,450.10059 C 401.7002,450.10059 242.30029,450.10059 82.899902,450.10059 C 79.200195,450.10059 75.300293,450.89941 72.399902,453.49902 C 65.899902,459.2998 65.800293,470.7998 72.300293,476.7002 C 74.300293,478.49902 76.899902,479.49902 79.399902,479.99902 L 0,479.99902 L 0,0 L 0,0 z "
   style="fill:#ffffff"
   id="path2255" />
				<path
   d="M 614,0 L 614.2998,0 C 623.7998,1.5 633.40039,2.7998047 643,4.199707 L 643,9.199707 C 623.7998,141.19971 604.7002,273.2002 585.5,405.10059 C 584.7998,412.39941 583.7002,420.10059 578.7998,425.89941 C 573.7002,432.49902 565.40039,436.2002 557,436.10059 C 402.40039,436.2002 247.7002,436.10059 93,436.10059 C 87.300293,436.10059 81.300293,436.39941 76,434.2002 C 67.5,430.89941 61,422.99902 59.5,414.10059 C 39.700195,277.49902 19.800293,140.8999 0,4.2998047 C 9.8999023,2.8999023 19.800293,1.3999023 29.700195,0 C 32,15.899902 34.399902,31.799805 36.600098,47.799805 C 60.200195,34 89.800293,31 115.5,40.299805 C 129.92432,45.172852 142.54395,54.035645 153.3584,64.480469 C 153.64014,64.752442 154.70801,66.126953 154.8125,66.240234 C 167.30518,79.737305 185.5542,87.895996 204,87.399902 C 222,87.299805 239.5,78.799805 251.6001,65.600098 C 271.3999,44.399902 301,32.399902 330,35.299805 C 353.10059,37.199707 375.10059,48.299805 391,65 C 397.7002,72.199707 405.7002,78.299805 414.7998,82.100098 C 435.40039,91.299805 460.7002,88.299805 478.7002,74.699707 C 485.5,69.899902 490.7002,63.299805 497,58 C 511.40039,45.799805 529.40039,37.699707 548.2002,35.699707 C 568.5,33.199707 589.40039,37.799805 607,48.199707 C 609.2998,32.100098 611.60059,16.100098 614,0 L 614,0 z "
   id="path2257" />
				<path
   d="M 614.2998,0 L 643,0 L 643,4.199707 C 633.40039,2.7998047 623.7998,1.5 614.2998,0 L 614.2998,0 z "
   style="fill:#ffffff"
   id="path2259" />
				<path
   d="M 41.5,81 C 53.100098,70.799805 68.5,64.799805 84,64.899902 C 99.200195,64.799805 114.30029,70.399902 125.8999,80.100098 C 129.7002,83.199707 133,87 136.6001,90.399902 C 152.30029,105.5 173.2002,115.2998 195,117 C 224.1001,119.69971 253.8999,107.6001 273.3999,86 C 282.80029,76.399902 294.7002,69.100098 307.8999,66.399902 C 326.40039,62.100098 346.60059,66.899902 361.5,78.699707 C 367.10059,82.899902 371.60059,88.5 376.90039,93.100098 C 396.2998,110.3999 423,119.6001 449,116.8999 C 468.7998,115.19971 487.7998,106.7998 502.7998,93.799805 C 508,89.399902 512.40039,84 517.7998,79.799805 C 529.59961,70.100098 544.7998,64.600098 560.10059,65 C 575.5,65.199707 590.5,71.299805 602.10059,81.399902 C 586.5,189.69971 570.7002,297.89941 555,406.10059 C 399.60059,406.2002 244.1001,406.10059 88.700195,406.10059 C 73,297.7002 57.200195,189.3999 41.5,81 L 41.5,81 z "
   style="fill:#ffffff"
   id="path2261" />
				<path
   d="M 241,154.8999 C 257.30029,152 275.1001,153 289.7002,161.2998 C 302.6001,168.6001 311.7002,181.19971 317.2002,194.69971 C 324.40039,212.19971 326.7002,231.2998 327,249.99902 C 327.7002,272.89941 324.60059,296.49902 313.6001,316.7998 C 304.7002,333.39941 290.2002,347.49902 272.1001,353.49902 C 249.8999,360.89941 225.5,357.49902 203.80029,349.7002 C 203.80029,341.60059 203.80029,333.49902 203.80029,325.39941 C 221.1001,333.49902 241,337.7998 259.8999,333.39941 C 272.2002,330.49902 282.8999,322.10059 289,311.10059 C 297.1001,296.60059 299.5,279.89941 300.6001,263.60059 C 292,276.60059 277.5,285.2002 262,286.7002 C 245.30029,288.2002 227.30029,284.89941 213.8999,274.2002 C 201.5,264.49902 194.1001,249.49902 192.1001,234.1001 C 189.8999,216.8999 191.30029,198.5 200.2002,183.2998 C 208.80029,168.3999 224.2002,157.7998 241,154.8999 L 241,154.8999 z "
   id="path2263" />
				<path
   d="M 375.40039,156.8999 C 410.2998,156.8999 445.2002,156.8999 480.10059,156.8999 C 480.10059,164.3999 480.10059,171.8999 480.10059,179.2998 C 453.2998,179.2998 426.5,179.2998 399.7998,179.2998 C 399.7998,195.3999 399.7998,211.5 399.7998,227.6001 C 415.2002,222.2998 432.2002,222.69971 448,226.69971 C 464.5,231.1001 479.40039,242.10059 487.2998,257.49902 C 495,272.7002 496,290.49902 493.09961,306.99902 C 490.40039,321.89941 481.90039,335.7998 469.2998,344.2998 C 454.09961,354.89941 435.10059,357.7998 416.90039,357.60059 C 400,357.39941 383.2002,354.10059 367,349.2002 C 367,340.2002 367,331.2998 367,322.39941 C 384.90039,332.2002 405.7998,336.49902 426.10059,334.7998 C 438.5,333.7002 450.90039,328.60059 458.7998,318.7002 C 467.7998,307.7998 469.5,292.39941 466.60059,278.89941 C 464.2998,267.39941 456.2998,257.49902 445.90039,252.10059 C 433.90039,245.7998 419.7998,245.2998 406.60059,246.7998 C 395.7998,248.10059 385.2998,251.39941 375.40039,255.7998 C 375.2998,222.8999 375.40039,189.8999 375.40039,156.8999 L 375.40039,156.8999 z "
   id="path2265" />
				<path
   d="M 246.5,175.69971 C 256.80029,173.3999 268.1001,174.19971 277.2002,179.7998 C 286.5,185.5 292.30029,195.6001 294.3999,206.1001 C 296.5,216.8999 296.3999,228.2998 293.30029,238.8999 C 290.1001,250.2998 281.7002,260.49902 270.30029,264.2002 C 257,268.2998 240.8999,266.49902 230.7002,256.2998 C 221.5,247.49902 218.1001,234.3999 218,222 C 217.7002,209.7998 220.2002,196.7998 228.2002,187.19971 C 232.80029,181.5 239.3999,177.3999 246.5,175.69971 L 246.5,175.69971 z "
   style="fill:#ffffff"
   id="path2267" />
				<path
   d="M 72.399902,453.49902 C 75.300293,450.89941 79.200195,450.10059 82.899902,450.10059 C 242.30029,450.10059 401.7002,450.10059 561.10059,450.10059 C 566.7002,449.7998 572.5,452.89941 574.7998,458.2998 C 578.90039,466.7002 574.10059,478.89941 564.2002,479.99902 L 79.399902,479.99902 C 76.899902,479.49902 74.300293,478.49902 72.300293,476.7002 C 65.800293,470.7998 65.899902,459.2998 72.399902,453.49902 L 72.399902,453.49902 z "
   id="path2269" />
			</g>
		</g>
	</svg>