<?xml version="1.0" encoding="UTF-8" standalone="no"?>
<!-- Created with Inkscape (http://www.inkscape.org/) -->
<svg
   xmlns:svg="http://www.w3.org/2000/svg"
   xmlns="http://www.w3.org/2000/svg"
   version="1.0"
   width="728.20117"
   height="496.10889"
   viewBox="0 0 728.20117 496.10889"
   id="svg2"
   xml:space="preserve"><defs
   id="defs10" />
	
		<g
   id="Ebene_1">
			<path
   d="M 728,2.5166016 C 727,-0.9833984 721.2998,-0.7832031 720.5,2.8168946 C 718.7002,9.5166016 718.10059,16.416992 716.7002,23.216797 C 713.2002,44.216797 709,65.216797 705.7002,86.316895 C 705.40039,87.416992 705.2002,88.716797 704.2002,89.516602 C 700.5,86.016602 697.40039,82.016602 693.2002,79.116699 C 683.5,72.016602 670.5,70.616699 659,73.416992 C 657.5,73.616699 656,74.116699 654.60059,73.816895 C 651.10059,69.916992 648.2002,65.516602 644.2002,62.016602 C 639.5,57.516602 633.7002,54.416992 628.2002,51.116699 C 621.2002,45.916992 615.2998,39.216797 608.40039,33.916992 C 602.10059,29.616699 594.60059,27.516602 587.5,24.916992 C 573.5,20.516602 558.09961,18.616699 543.90039,23.216797 C 522,29.416992 500.09961,36.116699 478.90039,44.416992 C 458.5,52.316895 438.40039,61.416992 419.7998,73.116699 C 412,77.616699 404.10059,81.916992 396,85.816895 C 391.7002,82.916992 388.40039,78.816895 383.7002,76.516602 C 372.2998,70.716797 358.1001,70.616699 346.3999,75.816895 C 336.2002,80.316895 329.5,89.516602 321.8999,97.216797 C 315.30029,104.31689 309.2002,112.5166 299.80029,116.0166 C 292.8999,118.6167 285.2002,118.5166 278,117.1167 C 267.8999,114.7168 261.6001,105.7168 254.7002,98.616699 C 249.6001,93.616699 245.1001,88.216797 240.1001,83.216797 C 227.2002,70.016602 205.1001,68.616699 189.7002,78.016602 C 181.5,82.916992 175.80029,90.816895 169.1001,97.316895 C 161.80029,105.41699 154.3999,114.81689 143.2002,117.31689 C 134.2002,118.81689 124.1001,118.5166 116.3999,112.91699 C 110.1001,108.2168 105.3999,101.91699 99.899902,96.416992 C 93.200195,89.816895 87.600098,81.916992 79.399902,77.016602 C 64.899902,69.116699 45.5,70.516602 32.600098,81.016602 C 29.200195,83.516602 26.700195,87.116699 23.100098,89.416992 C 18.300293,64.816895 14.600098,40.116699 10,15.416992 C 9.1000977,11.316895 9.2001953,6.8168945 7.5,2.8168945 C 5.6000977,-0.2832032 0.3999023,0.8168945 0,4.4169922 C 0,7.9169922 0.8999023,11.216797 1.3999023,14.616699 C 28.5,170.81689 55.700195,327.1167 82.800293,483.31592 C 83.399902,487.6167 84.600098,492.41748 88.700195,494.6167 C 92.700195,496.91748 97.600098,495.81592 102,496.01709 C 278.7002,496.01709 455.40039,496.01709 632,496.01709 C 637.7002,496.31592 643,491.81592 643.7998,486.31592 C 671.7002,328.01709 699.40039,169.6167 727.2998,11.316894 C 727.7002,8.4169922 728.60059,5.4169922 728,2.5166016 z M 419.7998,83.116699 C 424.7002,80.516602 429.2998,77.216797 434.2002,74.516602 C 451.7998,64.616699 470.40039,56.716797 489.2998,49.716797 C 510,42.116699 531.09961,35.516602 552.40039,30.016602 C 567.7002,27.216797 583.40039,31.916992 597.5,37.816895 C 604.10059,40.216797 608.7002,45.816895 614,50.316895 C 618.5,54.616699 623.10059,58.816895 628.7998,61.516602 C 646.2998,71.016602 657.90039,91.616699 654.2002,111.5166 C 650.60059,129.7168 644.2998,147.31689 636.7998,164.2168 C 630.7998,172.5166 624.7002,180.81689 619.2002,189.5166 C 607.5,207.2168 595.90039,225.1167 584.90039,243.21631 C 576,261.51709 569.90039,280.91748 562.5,299.81592 C 557.40039,312.31592 552.09961,324.81592 547.09961,337.41748 C 541.7998,350.91748 536.2002,364.81592 526.40039,375.71631 C 522.09961,380.31592 516.2002,385.31592 509.40039,383.91748 C 507.2002,383.71631 506.59961,381.1167 506.59961,379.31592 C 506.7998,372.71631 509.5,366.41748 512,360.41748 C 515.40039,352.1167 521,345.01709 524.09961,336.51709 C 527.90039,325.91748 531.7998,315.31592 534.2002,304.31592 C 537.7998,292.31592 537.90039,279.51709 542.5,267.81592 C 544.2002,263.6167 545.5,258.51709 542.90039,254.41748 C 539.59961,249.1167 532.59961,248.41748 527,249.21631 C 522.2998,249.71631 519.5,253.81592 517,257.31592 C 506.2002,272.31592 495.7002,287.51709 485.7002,303.01709 C 481.2002,311.51709 474.7998,318.6167 468.60059,325.81592 C 461.5,334.1167 454.10059,342.1167 446.7002,350.01709 C 442.7002,354.1167 439.90039,359.21631 436.2998,363.6167 C 430.2998,371.21631 423.7998,378.41748 417.2998,385.6167 C 412.7002,390.6167 407.5,395.31592 400.90039,397.41748 C 396.90039,398.71631 392,397.51709 389.60059,393.81592 C 387.90039,388.31592 391.40039,383.01709 394.2002,378.51709 C 400.60059,368.21631 410.2002,360.51709 417.5,350.81592 C 421,346.31592 425.40039,342.51709 428.2998,337.51709 C 434,327.41748 440.5,317.81592 446.90039,308.1167 C 449.5,303.91748 451,299.1167 453.40039,294.71631 C 458.2002,286.1167 463.59961,277.71631 469.2998,269.6167 C 472.2998,264.91748 476.5,260.21631 476.7998,254.31592 C 477.2002,251.01709 474,248.41748 471,248.1167 C 468.09961,248.21631 465,249.21631 463,251.31592 C 450.2002,265.81592 435.90039,278.91748 421.90039,292.21631 C 413.90039,299.21631 407.60059,307.91748 400.10059,315.41748 C 389.2998,327.31592 377.2998,338.01709 366.90039,350.21631 C 363.1001,354.41748 359.3999,358.71631 355.7002,363.01709 C 352.1001,367.1167 349.80029,372.31592 346.2002,376.41748 C 341.2002,382.41748 334.30029,387.01709 326.80029,388.91748 C 322.30029,390.31592 319.3999,385.51709 318.5,381.91748 C 317.30029,375.51709 320.8999,369.6167 324.30029,364.6167 C 331.7002,351.81592 342,341.01709 350.80029,329.31592 C 355.1001,319.51709 362.6001,311.71631 369.2998,303.6167 C 375,296.6167 381.2998,290.21631 387,283.31592 C 392.7998,274.31592 400.60059,267.01709 408,259.31592 C 414.60059,252.31592 422,246.01709 428.2998,238.6167 C 430.7998,235.6167 433.90039,232.0166 432.5,227.81689 C 430.90039,224.7168 427.10059,224.2168 424,223.91699 C 417.2998,223.7168 411.7002,228.0166 406.90039,232.2168 C 394.2998,243.71631 379.7998,253.01709 367.10059,264.41748 C 358.3999,271.51709 348.8999,277.71631 339.6001,283.91748 C 324,294.91748 315,312.71631 299.8999,324.21631 C 295.5,327.51709 290.6001,330.81592 285,331.1167 C 279.30029,331.71631 274.3999,324.81592 277.3999,319.71631 C 282.7002,308.41748 291.30029,299.1167 299.5,289.81592 C 304,284.6167 309.80029,280.81592 314.3999,275.71631 C 317.2002,272.51709 319.7002,269.01709 322.6001,265.91748 C 334.8999,253.1167 348.30029,241.6167 361,229.2168 C 368,222.91699 375.2002,216.81689 382.40039,210.7168 C 388.90039,205.6167 395.7002,200.6167 400.60059,193.91699 C 407.60059,183.7168 416.7998,175.41699 425,166.31689 C 433.7998,156.31689 436.60059,142.2168 434.7998,129.31689 C 434.40039,126.81689 434.10059,124.0166 432.2002,122.1167 C 429.5,119.91699 425.7998,120.5166 422.7002,121.2168 C 404.7002,126.31689 388.7002,136.2168 371.2002,142.7168 C 364.1001,145.7168 357.6001,149.91699 350.5,152.91699 C 338.80029,157.81689 326.1001,162.31689 313.30029,160.1167 C 307.5,159.0166 300.80029,156.91699 298.1001,151.1167 C 296.1001,147.0166 299.7002,143.31689 302.80029,141.2168 C 308,138.0166 313.6001,135.5166 318.6001,132.0166 C 334.80029,123.31689 351.7002,116.0166 368.7002,109.1167 C 386.10059,101.1167 402.90039,92.116699 419.7998,83.116699 z M 700.90039,113.0166 C 680.2002,231.41699 659.2998,349.71631 638.60059,468.01709 C 637.40039,473.6167 636.90039,479.31592 635.5,484.81592 C 635.10059,487.41748 632.10059,487.6167 630,487.71631 C 455.40039,487.71631 280.7002,487.71631 106,487.71631 C 102,487.6167 98,488.01709 94.100098,487.41748 C 92.300293,487.31592 91.700195,485.6167 91.399902,484.1167 C 70.399902,362.91748 49.300293,241.71631 28.399902,120.5166 C 27.5,113.91699 25.399902,107.41699 25.399902,100.7168 C 29,95.816895 33.399902,91.416992 38.100098,87.416992 C 47,80.116699 59.600098,79.016602 70.399902,82.116699 C 80.399902,85.516601 86.200195,94.816895 93.5,101.81689 C 100.2002,108.41699 105.7002,116.5166 114,121.31689 C 125.2002,127.81689 139.30029,128.1167 151.2002,123.41699 C 160.7002,119.7168 167.3999,111.7168 174.1001,104.41699 C 181.2002,97.516602 186.8999,88.916992 195.80029,84.116699 C 202.8999,80.216797 211.3999,80.016602 219.30029,81.116699 C 226.7002,82.316895 232.7002,87.316895 237.6001,92.716797 C 242.8999,98.716797 248.7002,104.31689 254,110.31689 C 258.80029,115.6167 264.1001,120.81689 270.80029,123.41699 C 281.80029,127.7168 294.6001,127.7168 305.3999,122.7168 C 314.5,118.7168 320.80029,110.81689 327.5,103.81689 C 334.1001,97.116699 339.7002,89.016602 348,84.316895 C 355.1001,80.216797 363.6001,80.016602 371.40039,81.116699 C 377.5,82.216797 383.60059,85.216797 387.2998,90.216797 C 380.2002,94.516602 372.5,97.816895 364.8999,101.31689 C 349.7002,107.41699 334.7002,114.1167 320.1001,121.41699 C 314.5,124.0166 309.6001,127.91699 304.1001,130.5166 C 299.6001,132.7168 295.30029,135.5166 292.2002,139.41699 C 288,144.7168 288,152.81689 292.2002,158.1167 C 298.2002,166.0166 308.5,169.0166 318,169.1167 C 333.8999,169.7168 349.1001,163.7168 363.1001,156.41699 C 370.40039,152.41699 378,149.0166 385.7998,146.0166 C 396.2002,141.0166 406.7002,136.2168 417.5,131.91699 C 420.2002,130.91699 423.10059,129.7168 426.10059,129.91699 C 427.2002,138.31689 426.40039,147.2168 422.5,154.81689 C 419.7002,160.1167 415.2002,164.1167 411.10059,168.41699 C 407,172.7168 403,177.0166 399.2002,181.41699 C 396,185.0166 393.7002,189.2168 390.40039,192.7168 C 385.2998,198.0166 379.10059,202.1167 373.5,206.91699 C 364.7002,214.41699 355.8999,221.81689 347.7002,230.0166 C 334.7002,242.6167 320.2002,254.01709 309.2002,268.51709 C 306.8999,271.21631 304.30029,273.6167 301.6001,275.91748 C 295.1001,281.31592 289.5,287.91748 284.1001,294.41748 C 278.7002,301.1167 273.1001,307.91748 269.7002,316.01709 C 268.6001,318.91748 267.3999,322.01709 267.80029,325.21631 C 269.30029,332.21631 274.7002,338.6167 282.1001,339.51709 C 291.6001,340.91748 300.1001,335.1167 307.1001,329.41748 C 321.2002,318.21631 329.8999,301.51709 344.6001,291.01709 C 356.80029,282.91748 368.90039,274.91748 379.7002,265.01709 C 391.2002,255.91748 403.2002,247.31592 414.10059,237.41699 C 416.40039,235.31689 419.2002,233.7168 422.10059,232.6167 C 409.60059,246.31592 395.40039,258.51709 383.7002,273.01709 C 378.7002,280.81592 371.90039,287.21631 366,294.31592 C 357.6001,304.1167 348.7002,313.71631 342.8999,325.31592 C 334.2002,336.91748 324.2002,347.6167 316.80029,360.1167 C 313.7002,365.1167 310.6001,370.31592 309.8999,376.21631 C 308.5,384.91748 313.3999,394.1167 321.30029,397.81592 C 325.7002,398.6167 330.2002,397.21631 334.30029,395.6167 C 343.8999,391.71631 351.8999,384.41748 357.30029,375.71631 C 359.2002,372.6167 361.30029,369.71631 363.7002,367.01709 C 370.5,359.21631 377.2002,351.21631 384.5,343.81592 C 397.5,331.1167 409.90039,317.81592 421.90039,304.21631 C 434.7002,292.01709 447.5,279.81592 460,267.41748 C 454.60059,276.51709 448.40039,285.21631 443.7002,294.81592 C 442.10059,298.21631 440.7002,301.81592 438.60059,304.91748 C 432.7998,313.81592 426.7998,322.6167 421.7002,331.91748 C 419.60059,335.71631 416.5,338.71631 413.60059,341.91748 C 410.2002,345.81592 407.2998,350.21631 403.60059,353.91748 C 395.2002,362.41748 387.2002,371.6167 382.2002,382.6167 C 379.90039,387.81592 379,394.71631 383,399.31592 C 387.2002,405.01709 394.7998,408.01709 401.7002,406.1167 C 410.7002,404.01709 417.7002,397.71631 423.90039,391.21631 C 431.10059,383.41748 438,375.31592 444.60059,366.91748 C 447.40039,363.41748 449.60059,359.41748 452.7998,356.1167 C 461.90039,346.51709 470.7002,336.71631 479.2998,326.6167 C 483.59961,321.51709 488,316.31592 491.2998,310.51709 C 494.7002,304.41748 498.7998,298.81592 502.59961,292.91748 C 509.7998,282.51709 516.90039,271.91748 524.40039,261.71631 C 525.90039,260.01709 527.40039,257.41748 530.09961,257.6167 C 532,257.6167 534.59961,257.31592 535.5,259.41748 C 535.59961,262.01709 534.40039,264.41748 533.59961,266.91748 C 529.90039,277.51709 529.40039,288.81592 526.5,299.51709 C 524.7998,306.41748 523.2002,313.31592 520.7002,319.91748 C 517.7002,327.81592 515.59961,336.21631 511.2002,343.51709 C 505.7998,352.1167 501.5,361.41748 499,371.31592 C 498.09961,375.91748 497.59961,380.81592 499,385.31592 C 501.2998,391.6167 509,393.71631 515,392.6167 C 523.7002,391.01709 530.5,384.71631 535.7998,378.1167 C 547.2002,363.6167 552.7002,345.71631 559.7998,328.91748 C 566.59961,312.6167 573.40039,296.21631 579.2998,279.51709 C 583.60059,268.31592 587.5,257.01709 593,246.31592 C 607.10059,223.81689 621.2998,201.41699 636.2998,179.5166 C 639,175.31689 642.7002,171.81689 644.90039,167.31689 C 652.10059,150.81689 658.2998,133.81689 662,116.31689 C 663.40039,109.5166 664.2002,102.5166 662.7998,95.616699 C 662,91.016602 660.2002,86.716797 659.10059,82.216797 C 669.90039,78.616699 683.2998,80.416992 691.60059,88.716797 C 695.40039,92.616699 699.40039,96.316895 702.5,100.81689 C 703,104.91699 701.5,109.0166 700.90039,113.0166 z "
   id="path7" />
		</g>
	</svg>