<?xml version="1.0" encoding="UTF-8" standalone="no"?>
<!-- Created with Inkscape (http://www.inkscape.org/) -->
<svg
   xmlns:svg="http://www.w3.org/2000/svg"
   xmlns="http://www.w3.org/2000/svg"
   version="1.0"
   width="800"
   height="600"
   id="svg2">
  <defs
     id="defs5" />
  <path
     d="M 760.37188,66.047744 L 674.44713,553.48632 L 125.71255,553.48632 L 39.787798,66.047744 M 57.327884,160.21794 C 59.315484,157.99049 60.963284,156.1338 62.561384,154.53564 C 65.731684,151.36534 68.608384,148.33054 71.587384,145.86077 C 77.545384,140.92125 85.774584,137.86475 94.789387,137.86475 C 103.80419,137.86475 112.03339,140.92125 117.99139,145.86077 C 120.97039,148.33054 123.84709,151.36534 127.01739,154.53564 C 129.92939,157.44768 133.00909,161.21553 137.93729,166.5258 C 142.13919,171.05343 145.00129,174.10176 147.98029,176.57153 C 153.93819,181.51105 162.16749,184.56755 171.18229,184.56755 C 180.19699,184.56755 188.42629,181.51105 194.38429,176.57153 C 197.36329,174.10176 200.52659,171.0559 204.79169,166.5258 C 209.78889,161.218 212.56739,157.44768 215.47939,154.53564 C 218.64969,151.36534 221.52639,148.33054 224.50539,145.86077 C 230.46339,140.92125 238.69259,137.86475 247.70739,137.86475 C 256.72219,137.86475 264.95139,140.92125 270.90939,145.86077 C 273.88839,148.33054 276.76509,151.36534 279.93539,154.53564 C 282.84739,157.44768 285.92429,161.218 290.92149,166.5258 C 295.18659,171.0559 298.05149,174.10176 301.03049,176.57153 C 306.98839,181.51105 315.21769,184.56755 324.23249,184.56755 C 333.24719,184.56755 341.47647,181.51105 347.43446,176.57153 C 350.41345,174.10176 353.27841,171.05593 357.54348,166.5258 C 362.54069,161.21803 365.6175,157.44768 368.52954,154.53564 C 371.69985,151.36534 374.57653,148.33054 377.55552,145.86077 C 383.51351,140.92125 391.74276,137.86475 400.75753,137.86475 C 409.7723,137.86475 418.0338,140.88282 423.95954,145.86077 C 430.8762,151.67114 436.66383,158.64821 443.70656,166.5258 C 447.73473,171.03147 450.57158,174.10176 453.55058,176.57153 C 459.50848,181.51105 467.73778,184.56755 476.75258,184.56755 C 485.76728,184.56755 493.99658,181.51105 499.95458,176.57153 C 502.93358,174.10176 506.09693,171.0559 510.36198,166.5258 C 515.35923,161.218 518.13768,157.44768 521.04968,154.53564 C 524.21998,151.36534 527.09668,148.33054 530.07568,145.86077 C 536.03368,140.92125 544.26288,137.86475 553.27768,137.86475 C 562.29248,137.86475 570.52168,140.92125 576.47968,145.86077 C 579.45868,148.33054 582.33538,151.36534 585.50568,154.53564 C 588.41768,157.44768 591.49453,161.218 596.49178,166.5258 C 600.75683,171.0559 603.62178,174.10176 606.60078,176.57153 C 612.55868,181.51105 620.78798,184.56755 629.80278,184.56755 C 638.81748,184.56755 647.04677,181.51105 653.00476,176.57153 C 655.98375,174.10176 658.84871,171.05593 663.11378,166.5258 C 668.11099,161.21803 671.1878,157.44768 674.09984,154.53564 C 677.27015,151.36534 680.14683,148.33054 683.12582,145.86077 C 689.08381,140.92125 697.31306,137.86475 706.32783,137.86475 C 715.3426,137.86475 723.57185,140.92125 729.52984,145.86077 C 732.50883,148.33054 735.38551,151.36534 738.55582,154.53564 C 740.22694,156.20677 741.94847,158.16418 743.85416,160.27091"
     style="fill:none;stroke:#000000;stroke-width:8;stroke-linecap:round;stroke-linejoin:round;stroke-miterlimit:4"
     id="path2161" />
  <text
     x="266.71243"
     y="444.13641"
     style="font-size:244px;font-family:Arial"
     id="text4170"
     xml:space="preserve"><tspan
       x="266.71243"
       y="444.13641"
       style="font-size:244px;font-style:normal;font-variant:normal;font-weight:normal;font-stretch:normal;text-align:start;line-height:100%;writing-mode:lr-tb;text-anchor:start;fill:#000000;font-family:Arial"
       id="tspan4172">95</tspan></text>
</svg>
