<?xml version="1.0" encoding="UTF-8"?>
<svg width="206.24pt" height="206.24pt" version="1.2" viewBox="0 0 206.24 206.24" xmlns="http://www.w3.org/2000/svg" xmlns:cc="http://creativecommons.org/ns#" xmlns:dc="http://purl.org/dc/elements/1.1/" xmlns:rdf="http://www.w3.org/1999/02/22-rdf-syntax-ns#">
 <metadata>
  <rdf:RDF>
   <cc:Work rdf:about="">
    <dc:format>image/svg+xml</dc:format>
    <dc:type rdf:resource="http://purl.org/dc/dcmitype/StillImage"/>
   </cc:Work>
  </rdf:RDF>
 </metadata>
 <path d="m1.2261 192.5s0 12.516 12.516 12.516h178.77s12.506 0 12.506-12.516v-178.77s0-12.506-12.506-12.506h-178.77s-12.516 0-12.516 12.506z" fill="#fff" stroke="#1ca6e6" stroke-width="2.4521"/>
 <path d="m54.103 102.59h-8.4512v2.6339h5.2772c-0.0567 3.3634-1.9991 5.4951-5.5615 5.4383-4.254 0-6.0257-3.7424-6.0257-7.5416 0-3.7992 1.7717-7.5511 6.0257-7.5511 2.5107 0 4.7846 1.3359 5.1162 3.9414h3.3918c-0.52108-4.4719-4.1687-6.7647-8.508-6.7647-5.9499 0-9.5028 4.7088-9.5028 10.374 0 5.6562 3.5529 10.374 9.5028 10.374 2.4254 0 4.1214-0.69164 5.9783-2.8044l0.53057 2.3307h2.2265zm6.5563 10.431h3.4771v-19.811h-3.4771zm10.374 0h3.3066v-14.562h0.0854l9.0386 14.562h3.6666v-19.811h-3.3066v14.6h-0.0568l-9.0575-14.6h-3.676zm22.994 0h14.486v-2.9939h-11.009v-5.7983h10.014v-2.8328h-10.014v-5.1825h10.82v-3.0034h-14.297zm18.409-16.808h6.2815v16.808h3.4771v-16.808h6.3099v-3.0034h-16.069zm21.156 16.808h14.486v-2.9939h-11.009v-5.7983h10.014v-2.8328h-10.014v-5.1825h10.82v-3.0034h-14.297zm25.136-10.261-7.03 10.261h3.9698l5.0404-7.57 4.9456 7.57h4.2256l-7.03-10.261 6.5563-9.5502h-3.8845l-4.7088 6.9921-4.5003-6.9921h-4.1403z" fill="#1ca6e6" stroke="#1ca6e6" stroke-width=".29833"/>
</svg>
