<?xml version="1.0" encoding="UTF-8"?>
<svg width="256.46pt" height="256.46pt" version="1.2" viewBox="0 0 256.46 256.46" xmlns="http://www.w3.org/2000/svg" xmlns:cc="http://creativecommons.org/ns#" xmlns:dc="http://purl.org/dc/elements/1.1/" xmlns:rdf="http://www.w3.org/1999/02/22-rdf-syntax-ns#">
 <metadata>
  <rdf:RDF>
   <cc:Work rdf:about="">
    <dc:format>image/svg+xml</dc:format>
    <dc:type rdf:resource="http://purl.org/dc/dcmitype/StillImage"/>
    <dc:title/>
   </cc:Work>
  </rdf:RDF>
 </metadata>
 <defs></defs>
 <path d="m0 239.17s0 17.294 17.294 17.294h221.87s17.294 0 17.294-17.294v-221.87s0-17.294-17.294-17.294h-221.87s-17.294 0-17.294 17.294z" fill="#1ca6e6"/>
 <g fill="#fff">
  <path d="m221.57 110.08c0-3.5459-2.6977-5.902-5.8078-5.902-3.1454 0-5.8431 2.3561-5.8431 5.902 0 3.3692 2.4268 5.9138 5.8431 5.9138 3.11 0 5.8078-2.3561 5.8078-5.9138m-1.2723 0c0 2.898-2.0027 4.8889-4.5354 4.8889-2.8273 0-4.5708-2.1912-4.5708-4.8889 0-2.8744 1.9909-4.8771 4.5708-4.8771 2.5328 0 4.5354 2.0027 4.5354 4.8771"/>
  <path d="m216.68 110.58c0.97778-0.10616 1.7082-0.60081 1.7082-1.7788 0-1.3312-0.80108-1.8849-2.3914-1.8849h-2.4974v6.5499h1.0838v-2.8038h1.0131l1.6964 2.8038h1.2252zm-0.8953-0.8364h-1.2016v-1.9085h1.2958c0.65971 0 1.4372 0.0941 1.4372 0.88354 0 0.95423-0.7186 1.0249-1.5314 1.0249"/>
  <path d="m180.02 139.99h-35.165l1.0013-1.6257c1.3783-2.2147 3.7815-6.0905 4.4294-7.1154 1.6728-2.627 3.1807-4.4883 7.4334-4.4883h16.54l-2.2265-8.2699h-18.436v-2.1205h20.062zm-31.348-2.1323h28.579l-2.4267-8.9767h-17.105c-3.2632 0-4.1703 1.2016-5.6428 3.5106-0.50657 0.78929-2.0852 3.3339-3.4046 5.4661"/>
  <path d="m197.03 141.39c-7.2803 0-13.206-5.9256-13.206-13.218 0-7.2803 5.9256-13.206 13.206-13.206 7.2921 0 13.218 5.9256 13.218 13.206 0 7.2921-5.9256 13.218-13.218 13.218m0-24.303c-6.1141 0-11.085 4.9714-11.085 11.085s4.9713 11.097 11.085 11.097c6.114 0 11.085-4.9832 11.085-11.097s-4.9714-11.085-11.085-11.085"/>
  <path d="m140.43 139.99h-23.62v-23.62h23.62zm-21.488-2.1323h19.367v-19.367h-19.367z"/>
  <path d="m111.84 139.99h-29.051l14.525-25.363zm-25.387-2.1323h21.711l-10.85-18.943z"/>
  <path d="m45.602 116.37 4.1232 23.62h26.871l4.1232-23.62h-2.1558l-0.74219 4.2645c-0.47121-0.12968-0.80105-0.48301-1.2841-1.0485-0.65971-0.75395-1.5668-1.8024-3.2867-1.8024s-2.627 1.0484-3.2867 1.8024c-0.62439 0.71863-0.97778 1.0956-1.7317 1.0956s-1.1074-0.37698-1.7317-1.0956c-0.6597-0.75395-1.5668-1.8024-3.2868-1.8024-1.7199 0-2.627 1.0484-3.2867 1.8024-0.61257 0.71863-0.97778 1.0956-1.7199 1.0956-0.75395 0-1.1192-0.37698-1.7317-1.0956-0.6597-0.75395-1.5668-1.8024-3.2867-1.8024-1.7317 0-2.627 1.0484-3.2868 1.8024-0.51832 0.6126-0.85995 0.96602-1.4019 1.072l-0.75395-4.2881zm3.2514 6.3143c1.2841-0.23553 2.038-1.0956 2.6035-1.7435 0.61257-0.71861 0.97778-1.0956 1.7317-1.0956 0.74216 0 1.1073 0.37697 1.7317 1.0956 0.6597 0.75394 1.555 1.8024 3.2868 1.8024 1.7199 0 2.627-1.0485 3.275-1.8024 0.62436-0.71861 0.97775-1.0956 1.7317-1.0956 0.75395 0 1.1074 0.37697 1.7317 1.0956 0.65971 0.75394 1.5668 1.8024 3.2868 1.8024 1.7199 0 2.627-1.0485 3.2867-1.8024 0.62436-0.71861 0.97778-1.0956 1.7317-1.0956s1.1074 0.37697 1.7317 1.0956c0.55367 0.63615 1.2723 1.4608 2.4857 1.72l-2.6506 15.197h-23.313z"/>
 </g>
</svg>
