<?xml version="1.0" encoding="UTF-8" standalone="no"?>
<!-- Created with Inkscape (http://www.inkscape.org/) -->

<svg
   xmlns:dc="http://purl.org/dc/elements/1.1/"
   xmlns:cc="http://creativecommons.org/ns#"
   xmlns:rdf="http://www.w3.org/1999/02/22-rdf-syntax-ns#"
   xmlns:svg="http://www.w3.org/2000/svg"
   xmlns="http://www.w3.org/2000/svg"
   version="1.1"
   width="1292.9207"
   height="890.0061"
   id="svg2">
  <defs
     id="defs4">
    <linearGradient
       id="linearGradient1547">
      <stop
         id="stop1548"
         style="stop-color:#000000;stop-opacity:1"
         offset="0" />
      <stop
         id="stop1549"
         style="stop-color:#ffffff;stop-opacity:1"
         offset="1" />
    </linearGradient>
    <linearGradient
       id="linearGradient1651">
      <stop
         id="stop1652"
         style="stop-color:#000000;stop-opacity:1"
         offset="0" />
      <stop
         id="stop1653"
         style="stop-color:#ffffff;stop-opacity:1"
         offset="1" />
    </linearGradient>
    <linearGradient
       id="linearGradient2783">
      <stop
         id="stop2784"
         style="stop-color:#000000;stop-opacity:1"
         offset="0" />
      <stop
         id="stop2785"
         style="stop-color:#ffffff;stop-opacity:1"
         offset="1" />
    </linearGradient>
  </defs>
  <metadata
     id="metadata7">
    <rdf:RDF>
      <cc:Work
         rdf:about="">
        <dc:format>image/svg+xml</dc:format>
        <dc:type
           rdf:resource="http://purl.org/dc/dcmitype/StillImage" />
        <dc:title></dc:title>
      </cc:Work>
    </rdf:RDF>
  </metadata>
  <g
     transform="translate(-39.57143,-174.43359)"
     id="layer1">
    <g
       transform="translate(92.616071,159.46504)"
       id="g3002">
      <g
         id="g2806">
        <path
           d="m 46.352165,145.54748 c 23.458276,0 23.458276,-20.88981 46.916559,-20.88981 23.458256,0 23.458256,20.88981 46.916526,20.88981 23.4583,0 23.4583,-20.88981 46.91655,-20.88981 23.45827,0 23.45827,20.88981 46.91656,20.88981 23.45827,0 23.45827,-20.88981 46.91653,-20.88981 23.45827,0 23.45827,20.88981 46.91655,20.88981"
           id="path684"
           style="fill:none;stroke:#000000;stroke-width:12.5;stroke-linecap:butt;stroke-linejoin:miter;stroke-miterlimit:4;stroke-opacity:1" />
        <path
           d="m 37.45635,106.87084 34.397159,171.98579 230.314961,0 35.43307,-171.98579"
           id="path685"
           style="fill:none;stroke:#000000;stroke-width:12.5;stroke-linecap:round;stroke-linejoin:round;stroke-miterlimit:4;stroke-opacity:1;stroke-dashoffset:0" />
      </g>
      <path
         d="m 76.905082,304.30655 220.818548,0"
         id="path1556"
         style="fill:none;stroke:#000000;stroke-width:12.71548271;stroke-linecap:round;stroke-linejoin:miter;stroke-miterlimit:4;stroke-opacity:1" />
      <g
         id="text3892"
         style="font-size:100px;font-style:normal;font-variant:normal;font-weight:normal;font-stretch:normal;text-align:center;writing-mode:lr-tb;text-anchor:middle;fill:#000000;fill-opacity:1;stroke:none;font-family:Sans;-inkscape-font-specification:Sans">
        <path
           d="m 108.89172,244.97464 0,-17.13867 -31.054684,0 0,-8.05664 32.666014,-46.38672 7.17774,0 0,46.38672 9.66796,0 0,8.05664 -9.66796,0 0,17.13867 z m 0,-25.19531 0,-32.27539 -22.412106,32.27539 z"
           id="path3897" />
        <path
           d="m 136.38196,209.67191 c -1e-5,-8.4635 0.87076,-15.27502 2.6123,-20.43457 1.74153,-5.15945 4.32942,-9.13894 7.76367,-11.93848 3.43423,-2.79941 7.75552,-4.19915 12.96387,-4.19922 3.84112,7e-5 7.21025,0.77318 10.10742,2.31934 2.8971,1.54629 5.28967,3.7761 7.17774,6.68945 1.88797,2.91347 3.36909,6.46164 4.44336,10.64453 1.07417,4.18299 1.61127,9.82263 1.61133,16.91895 -6e-5,8.39846 -0.86268,15.17742 -2.5879,20.33691 -1.7253,5.15951 -4.30505,9.14714 -7.73925,11.96289 -3.43428,2.81576 -7.77185,4.22363 -13.0127,4.22363 -6.90106,0 -12.32098,-2.47395 -16.25976,-7.42187 -4.72006,-5.95702 -7.08009,-15.65753 -7.08008,-29.10156 z m 9.0332,0 c -10e-6,11.75132 1.37531,19.57195 4.12598,23.46191 2.75063,3.88998 6.14418,5.83497 10.18066,5.83496 4.03643,1e-5 7.42998,-1.95312 10.18067,-5.85937 2.75061,-3.90624 4.12593,-11.71873 4.12597,-23.4375 -4e-5,-11.78381 -1.37536,-19.61258 -4.12597,-23.48633 -2.75069,-3.87364 -6.17679,-5.81048 -10.27832,-5.81055 -4.03649,7e-5 -7.25914,1.70905 -9.66797,5.12695 -3.02736,4.36204 -4.54103,12.41867 -4.54102,24.16993 z"
           id="path3899" />
        <path
           d="m 194.14563,185.6973 c -1e-5,-3.74343 1.32649,-6.93353 3.97949,-9.57032 2.65298,-2.63664 5.83495,-3.955 9.5459,-3.95507 3.77602,7e-5 6.9824,1.31843 9.61914,3.95507 2.63669,2.63679 3.95505,5.82689 3.95508,9.57032 -3e-5,3.74354 -1.32653,6.94178 -3.97949,9.59472 -2.65302,2.65304 -5.85126,3.97954 -9.59473,3.97949 -3.71095,5e-5 -6.89292,-1.31831 -9.5459,-3.95507 -2.653,-2.63667 -3.9795,-5.84305 -3.97949,-9.61914 z m 5.32227,0 c -2e-5,2.2787 0.80565,4.22368 2.41699,5.83496 1.61131,1.61138 3.5563,2.41704 5.83496,2.41699 2.24607,5e-5 4.17478,-0.80561 5.78613,-2.41699 1.6113,-1.61128 2.41697,-3.55626 2.41699,-5.83496 -2e-5,-2.27859 -0.80569,-4.22357 -2.41699,-5.83496 -1.61135,-1.61127 -3.54006,-2.41693 -5.78613,-2.417 -2.27866,7e-5 -4.22365,0.80573 -5.83496,2.417 -1.61134,1.61139 -2.41701,3.55637 -2.41699,5.83496 z"
           id="path3901" />
        <path
           d="m 286.72375,219.87698 9.47266,2.39258 c -1.98574,7.77996 -5.55833,13.71258 -10.71777,17.79785 -5.15956,4.08529 -11.46652,6.12793 -18.9209,6.12793 -7.71488,0 -13.98928,-1.57063 -18.82324,-4.71191 -4.834,-3.14127 -8.51238,-7.69042 -11.03516,-13.64746 -2.52279,-5.95701 -3.78418,-12.35349 -3.78418,-19.18946 0,-7.45438 1.42415,-13.95665 4.27246,-19.50683 2.8483,-5.55007 6.90103,-9.76556 12.15821,-12.64649 5.25713,-2.88078 11.04326,-4.32121 17.35839,-4.32128 7.16142,7e-5 13.18355,1.82298 18.06641,5.46875 4.88275,3.64589 8.28444,8.77284 10.20508,15.38085 l -9.32617,2.19727 c -1.66022,-5.20828 -4.06907,-9.00059 -7.22657,-11.37695 -3.1576,-2.37624 -7.12895,-3.56439 -11.91406,-3.56446 -5.50133,7e-5 -10.09931,1.31843 -13.79394,3.95508 -3.69469,2.63678 -6.29071,6.17681 -7.78809,10.62012 -1.49741,4.4434 -2.24611,9.02511 -2.24609,13.74512 -2e-5,6.08727 0.88702,11.40139 2.66113,15.94238 1.77407,4.54103 4.53285,7.93458 8.27637,10.18066 3.74346,2.24611 7.79619,3.36915 12.1582,3.36914 5.30595,1e-5 9.79813,-1.52994 13.47656,-4.58984 3.67833,-3.05988 6.16856,-7.60089 7.4707,-13.62305 z"
           id="path3903" />
      </g>
    </g>
    <g
       transform="translate(465.06776,140.60206)"
       id="g3798">
      <path
         d="M 187.4998,75.00001 56.25,318.75 l 262.5,0 L 187.4998,75.00001 z"
         id="path569"
         style="font-size:12px;fill:none;stroke:#000000;stroke-width:12.5;stroke-linecap:butt;stroke-linejoin:miter" />
      <g
         transform="matrix(1,0,0,1.00063,-0.45051,25.7445)"
         id="g2832">
        <path
           d="M 55.799488,93.75 318.75,319.05449"
           id="path2208"
           style="fill:none;stroke:#000000;stroke-width:11.25119972;stroke-linecap:round;stroke-linejoin:miter;stroke-miterlimit:4;stroke-opacity:1" />
        <path
           d="M 319.20051,93.75 56.25,319.05449"
           id="path2831"
           style="fill:none;stroke:#000000;stroke-width:11.25119972;stroke-linecap:round;stroke-linejoin:miter;stroke-miterlimit:4;stroke-opacity:1" />
      </g>
    </g>
    <g
       transform="translate(826.96912,173.41069)"
       id="g3819">
      <path
         d="m 183.92461,235 c 0,-10.35534 -7.73419,-18.75 -17.27481,-18.75 -9.54061,0 -17.2748,8.39466 -17.2748,18.75 0,10.35534 7.73419,18.75 17.2748,18.75 9.54062,0 17.27481,-8.39466 17.27481,-18.75 l 0,0 z"
         id="path1649"
         style="fill:#000000;fill-opacity:1;fill-rule:evenodd;stroke:#000000;stroke-width:1pt;stroke-linecap:butt;stroke-linejoin:miter;stroke-opacity:1" />
      <path
         d="m 256.02481,235 c 0,-10.35534 -7.73419,-18.75 -17.27481,-18.75 -9.54061,0 -17.2748,8.39466 -17.2748,18.75 0,10.35534 7.73419,18.75 17.2748,18.75 9.54062,0 17.27481,-8.39466 17.27481,-18.75 l 0,0 z"
         id="path1659"
         style="fill:#000000;fill-opacity:1;fill-rule:evenodd;stroke:#000000;stroke-width:1pt;stroke-linecap:butt;stroke-linejoin:miter;stroke-opacity:1" />
      <path
         d="m 112.66666,98.261892 188.14991,0 37.5,182.950608 -299.999981,0 c 0,0 56.249996,-93.75 112.499981,-93.75 56.25,0 166.25,0 166.25,0"
         id="path1842"
         style="fill:none;stroke:#000000;stroke-width:12.5;stroke-linecap:round;stroke-linejoin:round;stroke-miterlimit:4;stroke-opacity:1" />
    </g>
    <g
       transform="translate(274.47805,446.9184)"
       id="g3862">
      <path
         d="M 311.48582,187.5 C 311.49647,118.79457 255.98301,63.092151 187.5,63.092151 119.01699,63.092151 63.50353,118.79457 63.514183,187.5 63.50353,256.20543 119.01699,311.90785 187.5,311.90785 c 68.48301,0 123.99647,-55.70242 123.98582,-124.40785 l 0,0 z"
         transform="matrix(0.905299,0,0,0.934737,17.7564,20.9663)"
         id="path1580"
         style="fill:none;stroke:#000000;stroke-width:13.58839989;stroke-linecap:butt;stroke-linejoin:miter;stroke-miterlimit:4;stroke-opacity:1" />
      <g
         id="g4032">
        <path
           d="M 55.799488,93.75 318.75,319.05449"
           transform="matrix(1,0,0,0.825462,0.450512,30.0223)"
           id="path2208-9"
           style="fill:none;stroke:#000000;stroke-width:13.75819969;stroke-linecap:round;stroke-linejoin:miter;stroke-miterlimit:4;stroke-opacity:1;stroke-dasharray:none" />
        <path
           d="M 319.20051,93.75 56.25,319.05449"
           transform="matrix(1,0,0,0.825462,0.450512,30.0223)"
           id="path2831-5"
           style="fill:none;stroke:#000000;stroke-width:13.75819969;stroke-linecap:round;stroke-linejoin:miter;stroke-miterlimit:4;stroke-opacity:1;stroke-dasharray:none" />
      </g>
    </g>
    <g
       transform="translate(717.78571,465.64789)"
       id="g3877">
      <path
         d="m 297.0253,187.18597 c 0.009,-62.66532 -49.02908,-113.470764 -109.52438,-113.470764 -60.4953,0 -109.533804,50.805444 -109.524394,113.470764 -0.0094,62.66533 49.029094,113.47077 109.524394,113.47077 60.4953,0 109.5338,-50.80544 109.52438,-113.47077 l 0,0 z"
         id="path1580-9"
         style="fill:none;stroke:#000000;stroke-width:9.75767994;stroke-linecap:butt;stroke-linejoin:miter;stroke-miterlimit:4;stroke-opacity:1" />
      <rect
         width="247.54399"
         height="247.54399"
         x="63.728004"
         y="63.728004"
         id="rect1542"
         style="fill:none;stroke:#000000;stroke-width:12.5;stroke-linecap:butt;stroke-linejoin:miter;stroke-miterlimit:4;stroke-opacity:1;stroke-dasharray:none" />
      <path
         d="m 206.25,187.5 a 18.75,18.75 0 1 1 -37.5,0 18.75,18.75 0 1 1 37.5,0 z"
         id="path2165"
         style="fill:#000000;fill-opacity:1;fill-rule:evenodd;stroke:#000000;stroke-width:1.25;stroke-linecap:butt;stroke-linejoin:miter;stroke-miterlimit:4;stroke-opacity:1" />
    </g>
    <g
       id="text3882"
       style="font-size:100px;font-style:normal;font-variant:normal;font-weight:bold;font-stretch:normal;text-align:center;writing-mode:lr-tb;text-anchor:middle;fill:#000000;fill-opacity:1;stroke:none;font-family:Sans;-inkscape-font-specification:Sans Bold">
      <path
         d="m 344.9726,807.14337 28.61328,0 c 5.66402,7e-5 9.88765,0.23608 12.67089,0.70801 2.78316,0.47208 5.27339,1.45677 7.47071,2.9541 2.19721,1.49746 4.02826,3.49128 5.49316,5.98145 1.46478,2.49029 2.1972,5.28163 2.19727,8.37402 -7e-5,3.35291 -0.90339,6.42908 -2.70996,9.22852 -1.8067,2.79952 -4.25624,4.89912 -7.34864,6.29882 4.36193,1.26957 7.71479,3.43428 10.0586,6.49414 2.34368,3.05993 3.51556,6.65693 3.51562,10.79102 -6e-5,3.25523 -0.7569,6.42091 -2.27051,9.49707 -1.51373,3.07618 -3.58079,5.53386 -6.20117,7.37305 -2.6205,1.83919 -5.85129,2.97038 -9.69238,3.39355 -2.4089,0.26042 -8.21944,0.42318 -17.43164,0.48828 l -24.36523,0 z m 14.45312,11.91406 0,16.55274 9.47266,0 c 5.63147,4e-5 9.13082,-0.0813 10.49804,-0.24414 2.47392,-0.29293 4.4189,-1.14742 5.83496,-2.56348 1.41597,-1.41597 2.12398,-3.27957 2.12403,-5.59082 -5e-5,-2.21349 -0.6104,-4.01199 -1.83106,-5.39551 -1.22075,-1.3834 -3.03552,-2.22162 -5.44433,-2.51465 -1.43234,-0.1627 -5.55017,-0.24408 -12.35352,-0.24414 z m 0,28.4668 0,19.14063 13.37891,0 c 5.20829,10e-6 8.51232,-0.14648 9.91211,-0.43946 2.14839,-0.39061 3.89806,-1.34276 5.24902,-2.85644 1.35086,-1.51366 2.02631,-3.54002 2.02637,-6.0791 -6e-5,-2.14842 -0.52089,-3.97133 -1.5625,-5.46875 -1.04172,-1.49737 -2.54725,-2.58787 -4.51661,-3.27149 -1.96944,-0.68356 -6.2419,-1.02536 -12.81738,-1.02539 z"
         id="path3906" />
      <path
         d="m 417.09174,819.83868 0,-12.69531 13.7207,0 0,12.69531 z m 0,58.88672 0,-51.85547 13.7207,0 0,51.85547 z"
         id="path3908" />
      <path
         d="m 468.60541,826.86993 0,10.9375 -9.375,0 0,20.89844 c -2e-5,4.23179 0.0895,6.69761 0.26855,7.39746 0.17902,0.69988 0.58592,1.27768 1.22071,1.7334 0.63474,0.45574 1.40785,0.6836 2.31933,0.68359 1.26951,10e-6 3.1087,-0.43944 5.51758,-1.31835 l 1.17187,10.64453 c -3.19013,1.36718 -6.80341,2.05078 -10.83984,2.05078 -2.47398,0 -4.70379,-0.41504 -6.68945,-1.24512 -1.98569,-0.83008 -3.4424,-1.90429 -4.37012,-3.22266 -0.92774,-1.31835 -1.57065,-3.10058 -1.92871,-5.34668 -0.29298,-1.59504 -0.43946,-4.81769 -0.43945,-9.66796 l 0,-22.60743 -6.29883,0 0,-10.9375 6.29883,0 0,-10.30273 13.76953,-8.00781 0,18.31054 z"
         id="path3910" />
      <path
         d="m 502.00385,826.86993 0,10.9375 -9.375,0 0,20.89844 c -3e-5,4.23179 0.0895,6.69761 0.26855,7.39746 0.17901,0.69988 0.58591,1.27768 1.2207,1.7334 0.63474,0.45574 1.40786,0.6836 2.31934,0.68359 1.2695,10e-6 3.10869,-0.43944 5.51758,-1.31835 l 1.17187,10.64453 c -3.19013,1.36718 -6.80341,2.05078 -10.83984,2.05078 -2.47398,0 -4.70379,-0.41504 -6.68945,-1.24512 -1.98569,-0.83008 -3.4424,-1.90429 -4.37012,-3.22266 -0.92775,-1.31835 -1.57065,-3.10058 -1.92871,-5.34668 -0.29298,-1.59504 -0.43946,-4.81769 -0.43946,-9.66796 l 0,-22.60743 -6.29882,0 0,-10.9375 6.29882,0 0,-10.30273 13.76954,-8.00781 0,18.31054 z"
         id="path3912" />
      <path
         d="m 541.65228,862.2215 13.67188,2.29492 c -1.75786,5.01303 -4.53293,8.82976 -8.3252,11.45019 -3.79235,2.62045 -8.53682,3.93067 -14.2334,3.93067 -9.01694,0 -15.69011,-2.94596 -20.01953,-8.83789 -3.41797,-4.72004 -5.12695,-10.67707 -5.12695,-17.8711 0,-8.59371 2.24609,-15.32385 6.73828,-20.19043 4.49217,-4.86648 10.17251,-7.29975 17.04102,-7.2998 7.71481,5e-5 13.80204,2.54725 18.26172,7.6416 4.45958,5.09444 6.59174,12.8988 6.39648,23.41309 l -34.375,0 c 0.0976,4.06902 1.20441,7.23471 3.32031,9.49707 2.11586,2.26238 4.75258,3.39356 7.91016,3.39355 2.14841,10e-6 3.95504,-0.58593 5.41992,-1.75781 1.46481,-1.17186 2.57158,-3.05988 3.32031,-5.66406 z m 0.78125,-13.86719 c -0.0977,-3.97132 -1.12308,-6.99052 -3.07617,-9.05762 -1.95316,-2.06701 -4.32946,-3.10054 -7.12891,-3.10058 -2.99481,4e-5 -5.46877,1.09053 -7.42187,3.27148 -1.95314,2.18103 -2.91343,5.14326 -2.88086,8.88672 z"
         id="path3914" />
      <path
         d="m 609.27924,878.7254 -20.89844,-51.85547 14.4043,0 9.76562,26.46485 2.83203,8.83789 c 0.74867,-2.24608 1.22068,-3.72719 1.41602,-4.44336 0.4557,-1.46482 0.94398,-2.92966 1.46484,-4.39453 l 9.86328,-26.46485 14.11133,0 -20.60547,51.85547 z"
         id="path3916" />
      <path
         d="m 647.51166,852.06525 c -10e-6,-4.55726 1.12304,-8.96807 3.36914,-13.23243 2.24608,-4.26427 5.42805,-7.51948 9.5459,-9.76562 4.11781,-2.24604 8.71579,-3.36909 13.79394,-3.36914 7.84502,5e-5 14.27405,2.54725 19.28711,7.6416 5.01297,5.09444 7.51948,11.53161 7.51953,19.31152 -5e-5,7.84507 -2.53098,14.34735 -7.59277,19.50684 -5.06189,5.15951 -11.43396,7.73926 -19.11621,7.73926 -4.75263,0 -9.2855,-1.07422 -13.59863,-3.22266 -4.31317,-2.14843 -7.59279,-5.29784 -9.83887,-9.44824 -2.2461,-4.15038 -3.36915,-9.20408 -3.36914,-15.16113 z m 14.0625,0.73242 c -2e-5,5.14325 1.22068,9.08205 3.66211,11.8164 2.44138,2.73439 5.45244,4.10158 9.0332,4.10157 3.5807,10e-6 6.58362,-1.36718 9.00879,-4.10157 2.42509,-2.73435 3.63765,-6.7057 3.63769,-11.91406 -4e-5,-5.07809 -1.2126,-8.98434 -3.63769,-11.71875 -2.42517,-2.73433 -5.42809,-4.10152 -9.00879,-4.10156 -3.58076,4e-5 -6.59182,1.36723 -9.0332,4.10156 -2.44143,2.73441 -3.66213,6.67321 -3.66211,11.81641 z"
         id="path3918" />
      <path
         d="m 758.98627,878.7254 -13.72071,0 0,-26.46484 c -4e-5,-5.59893 -0.29301,-9.22034 -0.8789,-10.86426 -0.58598,-1.64384 -1.53813,-2.92151 -2.85645,-3.83301 -1.31839,-0.91141 -2.90531,-1.36714 -4.76074,-1.36718 -2.37633,4e-5 -4.50849,0.65108 -6.39648,1.95312 -1.88805,1.30212 -3.18199,3.02738 -3.88184,5.17578 -0.69989,2.14847 -1.04983,6.11982 -1.0498,11.91406 l 0,23.48633 -13.72071,0 0,-51.85547 12.74414,0 0,7.61719 c 4.52472,-5.85932 10.22133,-8.78901 17.08985,-8.78906 3.0273,5e-5 5.79422,0.5453 8.30078,1.63574 2.50646,1.09055 4.40262,2.48215 5.68847,4.17481 1.28576,1.69275 2.18094,3.61332 2.68555,5.76171 0.5045,2.14848 0.75678,5.22465 0.75684,9.22852 z"
         id="path3920" />
      <path
         d="m 800.68549,878.7254 0,-71.58203 13.7207,0 0,71.58203 z"
         id="path3922" />
      <path
         d="m 828.41986,819.83868 0,-12.69531 13.7207,0 0,12.69531 z m 0,58.88672 0,-51.85547 13.7207,0 0,51.85547 z"
         id="path3924" />
      <path
         d="m 903.3222,878.7254 -13.7207,0 0,-26.46484 c -4e-5,-5.59893 -0.29301,-9.22034 -0.8789,-10.86426 -0.58598,-1.64384 -1.53813,-2.92151 -2.85645,-3.83301 -1.3184,-0.91141 -2.90531,-1.36714 -4.76074,-1.36718 -2.37633,4e-5 -4.50849,0.65108 -6.39649,1.95312 -1.88804,1.30212 -3.18199,3.02738 -3.88183,5.17578 -0.69989,2.14847 -1.04983,6.11982 -1.04981,11.91406 l 0,23.48633 -13.7207,0 0,-51.85547 12.74414,0 0,7.61719 c 4.52472,-5.85932 10.22132,-8.78901 17.08984,-8.78906 3.02731,5e-5 5.79423,0.5453 8.30079,1.63574 2.50646,1.09055 4.40261,2.48215 5.68847,4.17481 1.28576,1.69275 2.18094,3.61332 2.68555,5.76171 0.5045,2.14848 0.75678,5.22465 0.75683,9.22852 z"
         id="path3926" />
      <path
         d="m 916.79877,878.7254 0,-71.58203 13.7207,0 0,37.98828 16.06445,-18.26172 16.89453,0 -17.7246,18.94532 18.99414,32.91015 -14.79493,0 -13.03711,-23.29101 -6.39648,6.68945 0,16.60156 z"
         id="path3928" />
      <path
         d="m 968.11713,863.93048 13.76953,-2.09961 c 0.58592,2.66929 1.77407,4.69565 3.56445,6.0791 1.79034,1.38348 4.29685,2.07521 7.51953,2.0752 3.54815,10e-6 6.21742,-0.65103 8.00786,-1.95313 1.2043,-0.91144 1.8066,-2.13215 1.8066,-3.66211 0,-1.04165 -0.3256,-1.90428 -0.9766,-2.58789 -0.6836,-0.65102 -2.21354,-1.25323 -4.58981,-1.80664 -11.06773,-2.44138 -18.0827,-4.6712 -21.04492,-6.68945 -4.10157,-2.79945 -6.15235,-6.68942 -6.15235,-11.66992 0,-4.49215 1.77409,-8.26819 5.32227,-11.32813 3.54816,-3.05984 9.04946,-4.58979 16.50391,-4.58984 7.09632,5e-5 12.3697,1.15565 15.8203,3.4668 3.4505,2.31124 5.8268,5.72921 7.1289,10.2539 l -12.9394,2.39258 c -0.5535,-2.01819 -1.6033,-3.56441 -3.14945,-4.63867 -1.54626,-1.07418 -3.75166,-1.61129 -6.61621,-1.61133 -3.61331,4e-5 -6.2012,0.5046 -7.76368,1.51367 -1.04168,0.71619 -1.56251,1.64392 -1.5625,2.78321 -1e-5,0.9766 0.45572,1.80667 1.36719,2.49023 1.23696,0.91149 5.50942,2.1973 12.81738,3.85742 7.30787,1.66019 12.41047,3.69469 15.30767,6.10352 2.8645,2.44143 4.2968,5.84312 4.2968,10.20508 0,4.75261 -1.9857,8.83789 -5.957,12.25585 -3.9714,3.41797 -9.847,5.12696 -17.62696,5.12696 -7.06382,0 -12.65463,-1.43229 -16.77246,-4.29688 -4.11784,-2.86457 -6.81153,-6.75454 -8.08105,-11.66992 z"
         id="path3930" />
      <path
         d="m 522.16986,1003.7254 0,-71.58203 13.7207,0 0,25.78125 c 4.23175,-4.81766 9.24477,-7.22651 15.03907,-7.22656 6.31506,5e-5 11.53966,2.28683 15.67382,6.86035 4.13406,4.57361 6.20112,11.14099 6.20118,19.70215 -6e-5,8.85418 -2.10781,15.67384 -6.32325,20.45898 -4.21554,4.78516 -9.33435,7.17776 -15.35644,7.17776 -2.96227,0 -5.88382,-0.7406 -8.76465,-2.2217 -2.88088,-1.4811 -5.36298,-3.67024 -7.44629,-6.56738 l 0,7.61718 z m 13.62305,-27.05078 c -2e-5,5.37112 0.84633,9.34247 2.53906,11.91406 2.37628,3.64585 5.53383,5.46876 9.47266,5.46875 3.0273,1e-5 5.60705,-1.29393 7.73925,-3.88183 2.13212,-2.58788 3.1982,-6.66502 3.19825,-12.23145 -5e-5,-5.92444 -1.07426,-10.1969 -3.22266,-12.81738 -2.14848,-2.6204 -4.89912,-3.93062 -8.25195,-3.93066 -3.28779,4e-5 -6.02216,1.27771 -8.20313,3.833 -2.18101,2.55538 -3.2715,6.43721 -3.27148,11.64551 z"
         id="path3932" />
      <path
         d="m 618.01947,1003.7254 0,-7.76367 c -1.88806,2.76693 -4.37015,4.94797 -7.44629,6.54297 -3.0762,1.5951 -6.32327,2.3926 -9.74121,2.3926 -3.48309,0 -6.60809,-0.765 -9.375,-2.2949 -2.76694,-1.53 -4.76889,-3.67842 -6.00586,-6.44536 -1.23699,-2.76691 -1.85547,-6.59178 -1.85547,-11.47461 l 0,-32.8125 13.72071,0 0,23.82813 c -3e-5,7.29169 0.25225,11.75946 0.75683,13.40332 0.50454,1.64389 1.42413,2.94597 2.75879,3.90625 1.33461,0.9603 3.02732,1.44044 5.07813,1.44043 2.34371,10e-6 4.44332,-0.64289 6.29882,-1.92871 1.85543,-1.2858 3.12496,-2.88085 3.8086,-4.78516 0.68355,-1.90428 1.02535,-6.56736 1.02539,-13.98926 l 0,-21.875 13.7207,0 0,51.85547 z m -27.19727,-61.03515 0,-11.76758 11.76758,0 0,11.76758 z m 20.9961,0 0,-11.76758 11.8164,0 0,11.76758 z"
         id="path3934" />
      <path
         d="m 643.75189,1007.1434 15.67383,1.9043 c 0.2604,1.8229 0.86261,3.0761 1.80664,3.7597 1.30206,0.9766 3.35284,1.4649 6.15234,1.4649 3.5807,0 6.26624,-0.5371 8.05665,-1.6114 1.20438,-0.7161 2.11584,-1.8717 2.73437,-3.4667 0.42314,-1.1394 0.63472,-3.239 0.63477,-6.2989 l 0,-7.56833 c -4.1016,5.59893 -9.27738,8.39843 -15.52735,8.39843 -6.96616,0 -12.48373,-2.946 -16.55273,-8.83789 -3.19011,-4.65493 -4.78516,-10.4492 -4.78516,-17.38281 0,-8.69137 2.09147,-15.33199 6.27442,-19.92188 4.18292,-4.58979 9.38311,-6.88471 15.60058,-6.88476 6.41273,5e-5 11.70244,2.8158 15.86914,8.44726 l 0,-7.27539 12.8418,0 0,46.53321 c -6e-5,6.11976 -0.50461,10.69336 -1.51367,13.72066 -1.00917,3.0274 -2.42518,5.4037 -4.24805,7.1289 -1.82296,1.7253 -4.25623,3.0762 -7.2998,4.0528 -3.04366,0.9765 -6.89294,1.4648 -11.54786,1.4648 -8.78908,0 -15.0228,-1.5055 -18.70117,-4.5166 -3.67839,-3.0111 -5.51758,-6.8278 -5.51758,-11.4502 0,-0.4557 0.0163,-1.0091 0.0488,-1.6601 z m 12.25586,-30.41995 c -2e-5,5.50132 1.06606,9.52964 3.19824,12.08496 2.13214,2.55535 4.76072,3.83302 7.88575,3.83301 3.35283,10e-6 6.18486,-1.31021 8.49609,-3.93067 2.31116,-2.62042 3.46676,-6.50225 3.4668,-11.6455 -4e-5,-5.37107 -1.10681,-9.35869 -3.32032,-11.96289 -2.21357,-2.60413 -5.01305,-3.90621 -8.39843,-3.90625 -3.28779,4e-5 -5.99775,1.27771 -8.12989,3.833 -2.13218,2.55538 -3.19826,6.45349 -3.19824,11.69434 z"
         id="path3936" />
      <path
         d="m 736.18353,987.2215 13.67188,2.29492 c -1.75786,5.01303 -4.53293,8.82976 -8.3252,11.45018 -3.79235,2.6205 -8.53682,3.9307 -14.2334,3.9307 -9.01694,0 -15.69011,-2.946 -20.01953,-8.83791 -3.41797,-4.72004 -5.12695,-10.67707 -5.12695,-17.8711 0,-8.59371 2.24609,-15.32385 6.73828,-20.19043 4.49217,-4.86648 10.17251,-7.29975 17.04102,-7.2998 7.71481,5e-5 13.80204,2.54725 18.26172,7.6416 4.45958,5.09444 6.59174,12.8988 6.39648,23.41309 l -34.375,0 c 0.0976,4.06902 1.20441,7.23471 3.32031,9.49707 2.11586,2.26238 4.75258,3.39356 7.91016,3.39355 2.14841,10e-6 3.95504,-0.58593 5.41992,-1.75781 1.46481,-1.17186 2.57158,-3.05988 3.32031,-5.66406 z m 0.78125,-13.86719 c -0.0977,-3.97132 -1.12308,-6.99052 -3.07617,-9.05762 -1.95316,-2.06701 -4.32946,-3.10054 -7.12891,-3.10058 -2.99481,4e-5 -5.46877,1.09053 -7.42187,3.27148 -1.95314,2.18103 -2.91343,5.14326 -2.88086,8.88672 z"
         id="path3938" />
      <path
         d="m 761.8183,1003.7254 0,-71.58203 13.7207,0 0,71.58203 z"
         id="path3940" />
      <path
         d="m 836.72064,1003.7254 -13.7207,0 0,-26.46484 c -4e-5,-5.59893 -0.29301,-9.22034 -0.87891,-10.86426 -0.58597,-1.64384 -1.53812,-2.92151 -2.85644,-3.83301 -1.3184,-0.91141 -2.90531,-1.36714 -4.76074,-1.36718 -2.37634,4e-5 -4.5085,0.65108 -6.39649,1.95312 -1.88804,1.30212 -3.18199,3.02738 -3.88184,5.17578 -0.69989,2.14847 -1.04982,6.11982 -1.0498,11.91406 l 0,23.48633 -13.7207,0 0,-51.85547 12.74414,0 0,7.61719 c 4.52471,-5.85932 10.22132,-8.78901 17.08984,-8.78906 3.02731,5e-5 5.79423,0.5453 8.30078,1.63574 2.50647,1.09055 4.40262,2.48215 5.68848,4.17481 1.28575,1.69275 2.18094,3.61332 2.68555,5.76171 0.5045,2.14848 0.75678,5.22465 0.75683,9.22852 z"
         id="path3942" />
    </g>
  </g>
</svg>
