<?xml version="1.0" encoding="UTF-8" standalone="no"?>
<!-- Created with Inkscape (http://www.inkscape.org/) -->
<svg
   xmlns:svg="http://www.w3.org/2000/svg"
   xmlns="http://www.w3.org/2000/svg"
   version="1.0"
   x="0.0000000"
   y="0.0000000"
   width="375.00000"
   height="375.00000"
   id="svg1">
  <defs
     id="defs3" />
  <path
     d="M 112.78342,168.55156 L 112.78342,162.08281 C 114.56466,162.92657 116.36934,163.57110 118.19748,164.01640 C 120.02559,164.46172 121.81856,164.68438 123.57639,164.68437 C 128.26386,164.68438 131.83808,163.11407 134.29904,159.97343 C 136.78338,156.80938 138.20135,152.01642 138.55295,145.59453 C 137.19354,147.61018 135.47089,149.15705 133.38498,150.23515 C 131.29902,151.31330 128.99042,151.85236 126.45920,151.85234 C 121.20918,151.85236 117.04903,150.27033 113.97873,147.10625 C 110.93185,143.91877 109.40841,139.57112 109.40842,134.06328 C 109.40841,128.67269 111.00216,124.34848 114.18967,121.09062 C 117.37715,117.83286 121.61934,116.20396 126.91623,116.20390 C 132.98651,116.20396 137.61542,118.53599 140.80295,123.20000 C 144.01385,127.84066 145.61931,134.59066 145.61935,143.45000 C 145.61931,151.72345 143.65057,158.33282 139.71310,163.27812 C 135.79901,168.20000 130.52558,170.66093 123.89279,170.66093 C 122.11152,170.66093 120.30684,170.48515 118.47873,170.13359 C 116.65059,169.78203 114.75216,169.25468 112.78342,168.55156 M 126.91623,146.29765 C 130.10370,146.29768 132.62323,145.20783 134.47482,143.02812 C 136.34979,140.84846 137.28729,137.86018 137.28732,134.06328 C 137.28729,130.28988 136.34979,127.31332 134.47482,125.13359 C 132.62323,122.93051 130.10370,121.82895 126.91623,121.82890 C 123.72871,121.82895 121.19746,122.93051 119.32248,125.13359 C 117.47090,127.31332 116.54512,130.28988 116.54514,134.06328 C 116.54512,137.86018 117.47090,140.84846 119.32248,143.02812 C 121.19746,145.20783 123.72871,146.29768 126.91623,146.29765 M 158.48654,117.15312 L 186.36545,117.15312 L 186.36545,123.12968 L 164.99045,123.12968 L 164.99045,135.99687 C 166.02168,135.64534 167.05293,135.38753 168.08420,135.22343 C 169.11543,135.03597 170.14668,134.94222 171.17795,134.94218 C 177.03730,134.94222 181.67792,136.54769 185.09982,139.75859 C 188.52166,142.96955 190.23260,147.31721 190.23264,152.80156 C 190.23260,158.45001 188.47479,162.84453 184.95920,165.98515 C 181.44354,169.10234 176.48652,170.66093 170.08810,170.66093 C 167.88496,170.66093 165.63496,170.47343 163.33810,170.09843 C 161.06466,169.72343 158.70919,169.16093 156.27170,168.41093 L 156.27170,161.27422 C 158.38107,162.42266 160.56075,163.27813 162.81076,163.84062 C 165.06075,164.40313 167.43965,164.68438 169.94748,164.68437 C 174.00214,164.68438 177.21308,163.61797 179.58029,161.48515 C 181.94745,159.35235 183.13104,156.45782 183.13107,152.80156 C 183.13104,149.14533 181.94745,146.25080 179.58029,144.11797 C 177.21308,141.98518 174.00214,140.91878 169.94748,140.91875 C 168.04902,140.91878 166.15059,141.12971 164.25217,141.55156 C 162.37716,141.97346 160.45528,142.62971 158.48654,143.52031 L 158.48654,117.15312"
     transform="scale(1.255735,1.453502)"
     style="font-size:72.000000px;font-style:normal;font-variant:normal;font-weight:normal;font-stretch:normal;writing-mode:lr-tb;text-anchor:start;fill:#000000;fill-opacity:1.0000000;stroke:none;stroke-width:1.0000000pt;stroke-linecap:butt;stroke-linejoin:miter;stroke-opacity:1.0000000;font-family:Bitstream Vera Sans"
     id="text2897" />
  <g
     transform="translate(-0.476721,-6.069183e-2)"
     style="fill:none;fill-opacity:1.0000000;stroke:#000000;stroke-opacity:1.0000000"
     id="g1568">
    <path
       d="M 45.364784,145.60817 C 68.823063,145.60817 68.823063,124.71836 92.281348,124.71836 C 115.73961,124.71836 115.73961,145.60817 139.19788,145.60817 C 162.65617,145.60817 162.65617,124.71836 186.11443,124.71836 C 209.57270,124.71836 209.57270,145.60817 233.03099,145.60817 C 256.48927,145.60817 256.48927,124.71836 279.94753,124.71836 C 303.40580,124.71836 303.40580,145.60817 326.86409,145.60817"
       transform="translate(2.500000,0.000000)"
       style="fill-rule:evenodd;stroke-width:12.500000;stroke-linecap:butt;stroke-linejoin:miter;stroke-miterlimit:4.0000000"
       id="path650" />
    <path
       d="M 36.468983,106.93153 L 70.866142,278.91732 L 301.18110,278.91732 L 336.61417,106.93153"
       transform="translate(2.500000,0.000000)"
       style="fill-rule:evenodd;stroke-width:12.500000;stroke-linecap:round;stroke-linejoin:round;stroke-miterlimit:4.0000000;stroke-dashoffset:0.0000000"
       id="path651" />
  </g>
  <path
     d="M 77.082482,304.30655 L 297.90104,304.30655"
     style="fill:none;fill-opacity:0.75000000;fill-rule:evenodd;stroke:#000000;stroke-width:12.715483;stroke-linecap:round;stroke-linejoin:miter;stroke-miterlimit:4.0000000;stroke-opacity:1.0000000"
     id="path1556" />
</svg>
