<?xml version="1.0" encoding="UTF-8" standalone="no"?>
<!-- Creator: fig2dev Version 3.2 Patchlevel 4 -->
<!-- CreationDate: Sun Jan 27 16:50:14 2008 -->
<svg
   xmlns:dc="http://purl.org/dc/elements/1.1/"
   xmlns:cc="http://web.resource.org/cc/"
   xmlns:rdf="http://www.w3.org/1999/02/22-rdf-syntax-ns#"
   xmlns:svg="http://www.w3.org/2000/svg"
   xmlns="http://www.w3.org/2000/svg"
   xmlns:sodipodi="http://sodipodi.sourceforge.net/DTD/sodipodi-0.dtd"
   xmlns:inkscape="http://www.inkscape.org/namespaces/inkscape"
   width="199.9744"
   height="91.367615"
   viewBox="0 0 20157 13858"
   id="svg2"
   sodipodi:version="0.32"
   inkscape:version="0.45.1"
   sodipodi:docname="Waschen_schon.svg"
   inkscape:output_extension="org.inkscape.output.svg.inkscape"
   sodipodi:docbase="C:\Documents and Settings\Donald Thomas\My Documents\temp\4"
   version="1.0">
  <metadata
     id="metadata279">
    <rdf:RDF>
      <cc:Work
         rdf:about="">
        <dc:format>image/svg+xml</dc:format>
        <dc:type
           rdf:resource="http://purl.org/dc/dcmitype/StillImage" />
      </cc:Work>
    </rdf:RDF>
  </metadata>
  <defs
     id="defs277" />
  <sodipodi:namedview
     inkscape:window-height="573"
     inkscape:window-width="744"
     inkscape:pageshadow="2"
     inkscape:pageopacity="0.0"
     guidetolerance="10.0"
     gridtolerance="10.0"
     objecttolerance="10.0"
     borderopacity="1.0"
     bordercolor="#666666"
     pagecolor="#ffffff"
     id="base"
     inkscape:zoom="3.2954219"
     inkscape:cx="66.923658"
     inkscape:cy="45.683807"
     inkscape:window-x="22"
     inkscape:window-y="29"
     inkscape:current-layer="svg2" />
  <g
     style="fill:none;stroke:#000000;stroke-width:0.025in"
     id="g4"
     transform="matrix(7.9236947,0,0,7.9732303,-27371.045,-14485.64)">
    <defs
       id="defs6">
      <pattern
         id="tile1"
         x="0"
         y="0"
         width="200"
         height="200"
         patternUnits="userSpaceOnUse">
        <path
           d="M 0 -100 200 16"
           id="path9" />
        <path
           d="M 0 -60 200 56"
           id="path11" />
        <path
           d="M 0 -20 200 96"
           id="path13" />
        <path
           d="M 0 20 200 136"
           id="path15" />
        <path
           d="M 0 60 200 176"
           id="path17" />
        <path
           d="M 0 100 200 216"
           id="path19" />
        <path
           d="M 0 140 200 256"
           id="path21" />
        <path
           d="M 0 180 200 296"
           id="path23" />
      </pattern>
      <pattern
         id="tile2"
         x="0"
         y="0"
         width="200"
         height="200"
         patternUnits="userSpaceOnUse">
        <path
           d="M 200 -100 0 16"
           id="path26" />
        <path
           d="M 200 -60 0 56"
           id="path28" />
        <path
           d="M 200 -20 0 96"
           id="path30" />
        <path
           d="M 200 20 0 136"
           id="path32" />
        <path
           d="M 200 60 0 176"
           id="path34" />
        <path
           d="M 200 100 0 216"
           id="path36" />
        <path
           d="M 200 140 0 256"
           id="path38" />
        <path
           d="M 200 180 0 296"
           id="path40" />
      </pattern>
      <pattern
         id="tile3"
         x="0"
         y="0"
         width="200"
         height="200"
         patternUnits="userSpaceOnUse">
        <path
           d="M 0 -100 200 16"
           id="path43" />
        <path
           d="M 200 -100 0 16"
           id="path45" />
        <path
           d="M 0 -60 200 56"
           id="path47" />
        <path
           d="M 200 -60 0 56"
           id="path49" />
        <path
           d="M 0 -20 200 96"
           id="path51" />
        <path
           d="M 200 -20 0 96"
           id="path53" />
        <path
           d="M 0 20 200 136"
           id="path55" />
        <path
           d="M 200 20 0 136"
           id="path57" />
        <path
           d="M 0 60 200 176"
           id="path59" />
        <path
           d="M 200 60 0 176"
           id="path61" />
        <path
           d="M 0 100 200 216"
           id="path63" />
        <path
           d="M 200 100 0 216"
           id="path65" />
        <path
           d="M 0 140 200 256"
           id="path67" />
        <path
           d="M 200 140 0 256"
           id="path69" />
        <path
           d="M 0 180 200 296"
           id="path71" />
        <path
           d="M 200 180 0 296"
           id="path73" />
      </pattern>
      <pattern
         id="tile4"
         x="0"
         y="0"
         width="200"
         height="200"
         patternUnits="userSpaceOnUse">
        <path
           d="M 100 0 200 100"
           id="path76" />
        <path
           d="M 0 0 200 200"
           id="path78" />
        <path
           d="M 0 100 100 200"
           id="path80" />
      </pattern>
      <pattern
         id="tile5"
         x="0"
         y="0"
         width="200"
         height="200"
         patternUnits="userSpaceOnUse">
        <path
           d="M 100 0 0 100"
           id="path83" />
        <path
           d="M 200 0 0 200"
           id="path85" />
        <path
           d="M 200 100 100 200"
           id="path87" />
      </pattern>
      <pattern
         id="tile6"
         x="0"
         y="0"
         width="200"
         height="200"
         patternUnits="userSpaceOnUse">
        <path
           d="M 100 0 200 100"
           id="path90" />
        <path
           d="M 0 0 200 200"
           id="path92" />
        <path
           d="M 0 100 100 200"
           id="path94" />
        <path
           d="M 100 0 0 100"
           id="path96" />
        <path
           d="M 200 0 0 200"
           id="path98" />
        <path
           d="M 200 100 100 200"
           id="path100" />
      </pattern>
      <pattern
         id="tile7"
         x="0"
         y="0"
         width="200"
         height="200"
         patternUnits="userSpaceOnUse">
        <path
           d="M 0 0 0 50"
           id="path103" />
        <path
           d="M 0 50 200 50"
           id="path105" />
        <path
           d="M 100 50 100 150"
           id="path107" />
        <path
           d="M 0 150 200 150"
           id="path109" />
        <path
           d="M 0 150 0 200"
           id="path111" />
      </pattern>
      <pattern
         id="tile8"
         x="0"
         y="0"
         width="200"
         height="200"
         patternUnits="userSpaceOnUse">
        <path
           d="M 0 0 50 0"
           id="path114" />
        <path
           d="M 50 0 50 200"
           id="path116" />
        <path
           d="M 50 100 150 100"
           id="path118" />
        <path
           d="M 150 0 150 200"
           id="path120" />
        <path
           d="M 150 0 200 0"
           id="path122" />
      </pattern>
      <pattern
         id="tile9"
         x="0"
         y="0"
         width="200"
         height="200"
         patternUnits="userSpaceOnUse">
        <path
           d="M 0 50 200 50"
           id="path125" />
        <path
           d="M 0 150 200 150"
           id="path127" />
      </pattern>
      <pattern
         id="tile10"
         x="0"
         y="0"
         width="200"
         height="200"
         patternUnits="userSpaceOnUse">
        <path
           d="M 50 0 50 200"
           id="path130" />
        <path
           d="M 150 0 150 200"
           id="path132" />
      </pattern>
      <pattern
         id="tile11"
         x="0"
         y="0"
         width="200"
         height="200"
         patternUnits="userSpaceOnUse">
        <path
           d="M 0 50 200 50"
           id="path135" />
        <path
           d="M 0 150 200 150"
           id="path137" />
        <path
           d="M 50 0 50 200"
           id="path139" />
        <path
           d="M 150 0 150 200"
           id="path141" />
      </pattern>
      <pattern
         id="tile12"
         x="0"
         y="0"
         width="200"
         height="200"
         patternUnits="userSpaceOnUse">
        <path
           d="M 0 0 25 50"
           id="path144" />
        <path
           d="M 0 50 200 50"
           id="path146" />
        <path
           d="M 100 50 125 150"
           id="path148" />
        <path
           d="M 0 150 200 150"
           id="path150" />
        <path
           d="M 0 150 25 200"
           id="path152" />
      </pattern>
      <pattern
         id="tile13"
         x="0"
         y="0"
         width="200"
         height="200"
         patternUnits="userSpaceOnUse">
        <path
           d="M 200 0 175 50"
           id="path155" />
        <path
           d="M 0 50 200 50"
           id="path157" />
        <path
           d="M 100 50 75 150"
           id="path159" />
        <path
           d="M 0 150 200 150"
           id="path161" />
        <path
           d="M 200 150 175 200"
           id="path163" />
      </pattern>
      <pattern
         id="tile14"
         x="0"
         y="0"
         width="200"
         height="200"
         patternUnits="userSpaceOnUse">
        <path
           d="M 0 0 50 25"
           id="path166" />
        <path
           d="M 50 0 50 200"
           id="path168" />
        <path
           d="M 50 100 150 125"
           id="path170" />
        <path
           d="M 150 0 150 200"
           id="path172" />
        <path
           d="M 150 0 200 25"
           id="path174" />
      </pattern>
      <pattern
         id="tile15"
         x="0"
         y="0"
         width="200"
         height="200"
         patternUnits="userSpaceOnUse">
        <path
           d="M 0 25 50 0"
           id="path177" />
        <path
           d="M 50 0 50 200"
           id="path179" />
        <path
           d="M 50 125 150 100"
           id="path181" />
        <path
           d="M 150 0 150 200"
           id="path183" />
        <path
           d="M 150 25 200 0"
           id="path185" />
      </pattern>
      <pattern
         id="tile16"
         x="0"
         y="0"
         width="200"
         height="200"
         patternUnits="userSpaceOnUse">
        <path
           d="M 0 50 A 50 50 0 1 0 100 50"
           id="path188" />
        <path
           d="M 100 50 A 50 50 0 1 0 200 50"
           id="path190" />
        <path
           d="M 50 100 A 50 50 0 1 0 150 100"
           id="path192" />
        <path
           d="M 0 150 A 50 50 0 0 0 50 100"
           id="path194" />
        <path
           d="M 150 100 A 50 50 0 1 0 200 50"
           id="path196" />
        <path
           d="M 50 0 A 50 50 0 1 0 150 0"
           id="path198" />
        <path
           d="M 150 0 A 50 50 0 0 0 200 50"
           id="path200" />
        <path
           d="M 0 50 A 50 50 0 0 0 50 0"
           id="path202" />
        <path
           d="M 0 150 A 50 50 0 1 0 100 150"
           id="path204" />
        <path
           d="M 100 150 A 50 50 0 1 0 200 150"
           id="path206" />
      </pattern>
      <pattern
         id="tile17"
         x="0"
         y="0"
         width="100"
         height="100"
         patternUnits="userSpaceOnUse">
        <g
           transform="scale(0.5)"
           id="g209">
          <path
             d="M 0 50 A 50 50 0 1 0 100 50"
             id="path211" />
          <path
             d="M 100 50 A 50 50 0 1 0 200 50"
             id="path213" />
          <path
             d="M 50 100 A 50 50 0 1 0 150 100"
             id="path215" />
          <path
             d="M 0 150 A 50 50 0 0 0 50 100"
             id="path217" />
          <path
             d="M 150 100 A 50 50 0 1 0 200 50"
             id="path219" />
          <path
             d="M 50 0 A 50 50 0 1 0 150 0"
             id="path221" />
          <path
             d="M 150 0 A 50 50 0 0 0 200 50"
             id="path223" />
          <path
             d="M 0 50 A 50 50 0 0 0 50 0"
             id="path225" />
          <path
             d="M 0 150 A 50 50 0 1 0 100 150"
             id="path227" />
          <path
             d="M 100 150 A 50 50 0 1 0 200 150"
             id="path229" />
        </g>
      </pattern>
      <pattern
         id="tile18"
         x="0"
         y="0"
         width="200"
         height="200"
         patternUnits="userSpaceOnUse">
        <circle
           cx="100"
           cy="100"
           r="100"
           id="circle232" />
      </pattern>
      <pattern
         id="tile19"
         x="0"
         y="0"
         width="200"
         height="200"
         patternUnits="userSpaceOnUse">
        <path
           d="M 0 50 45 0 105 0 140 50 200 50 "
           id="path235" />
        <path
           d="M 0 50 45 100 105 100 140 50 200 50"
           id="path237" />
        <path
           d="M 0 150 45 100 105 100 140 150 200 150"
           id="path239" />
        <path
           d="M 0 150 45 200 105 200 140 150 200 150"
           id="path241" />
      </pattern>
      <pattern
         id="tile20"
         x="0"
         y="0"
         width="200"
         height="200"
         patternUnits="userSpaceOnUse">
        <path
           d="M 0 70 65 0 140 0 200 70 "
           id="path244" />
        <path
           d="M 0 70 0 130 65 200 140 200 200 130 200 70"
           id="path246" />
      </pattern>
      <pattern
         id="tile21"
         x="0"
         y="0"
         width="200"
         height="200"
         patternUnits="userSpaceOnUse">
        <path
           d="M 50 0 75 25 100 0 M 150 0 175 25 200 0"
           id="path249" />
        <path
           d="M 0 50 25 25 75 75 125 25 175 75 200 50"
           id="path251" />
        <path
           d="M 0 100 25 75 75 125 125 75 175 125 200 100"
           id="path253" />
        <path
           d="M 0 150 25 125 75 175 125 125 175 175 200 150"
           id="path255" />
        <path
           d="M 0 200 25 175 75 225 125 175 175 225 200 200"
           id="path257" />
      </pattern>
      <pattern
         id="tile22"
         x="0"
         y="0"
         width="200"
         height="200"
         patternUnits="userSpaceOnUse">
        <path
           d="M 0 50 25 75 0 100 M 0 150 25 175 0 200"
           id="path260" />
        <path
           d="M 50 0 25 25 75 75 25 125 75 175 50 200"
           id="path262" />
        <path
           d="M 100 0 75 25 125 75 75 125 125 175 100 200"
           id="path264" />
        <path
           d="M 150 0 125 25 175 75 125 125 175 175 150 200"
           id="path266" />
        <path
           d="M 200 0 175 25 225 75 175 125 225 175 200 200"
           id="path268" />
      </pattern>
    </defs>
<!-- Line -->    <path
       d="M 2834,1937 L 3307,3307 L 6141,3307 L 6614,1842"
       style="stroke:#000000;stroke-width:48"
       id="path270" />
<!-- Line -->    <path
       d="M 3779,3543 L 5669,3543"
       style="stroke:#000000;stroke-width:48"
       id="path272" />
<!-- Line -->    <path
       d="M 2929,2173 L 2930,2174 L 2932,2175 L 2935,2178 L 2941,2182 L 2950,2188 L 2960,2196 L 2974,2204 L 2990,2215 L 3007,2226 L 3028,2239 L 3050,2251 L 3075,2264 L 3101,2277 L 3129,2290 L 3160,2302 L 3191,2313 L 3226,2324 L 3264,2334 L 3304,2343 L 3349,2350 L 3398,2356 L 3451,2362 L 3509,2364 L 3571,2364 L 3637,2362 L 3692,2358 L 3746,2352 L 3799,2346 L 3847,2338 L 3892,2329 L 3932,2320 L 3968,2310 L 3998,2300 L 4026,2290 L 4048,2280 L 4067,2269 L 4083,2259 L 4097,2248 L 4109,2237 L 4119,2226 L 4130,2216 L 4140,2205 L 4151,2195 L 4163,2184 L 4178,2174 L 4195,2163 L 4215,2153 L 4240,2143 L 4268,2133 L 4302,2123 L 4341,2114 L 4385,2106 L 4435,2097 L 4490,2091 L 4550,2085 L 4612,2080 L 4677,2078 L 4746,2078 L 4812,2079 L 4874,2082 L 4932,2088 L 4983,2094 L 5027,2101 L 5066,2110 L 5099,2118 L 5126,2128 L 5149,2137 L 5167,2148 L 5183,2157 L 5195,2167 L 5206,2178 L 5216,2188 L 5226,2199 L 5236,2209 L 5249,2220 L 5264,2230 L 5281,2241 L 5302,2250 L 5329,2261 L 5359,2270 L 5395,2280 L 5437,2288 L 5485,2296 L 5538,2302 L 5594,2308 L 5654,2312 L 5716,2314 L 5781,2316 L 5843,2313 L 5902,2310 L 5956,2306 L 6008,2301 L 6055,2293 L 6099,2285 L 6140,2277 L 6179,2267 L 6215,2257 L 6249,2246 L 6281,2236 L 6311,2224 L 6341,2213 L 6368,2201 L 6393,2190 L 6416,2179 L 6437,2169 L 6456,2159 L 6473,2151 L 6487,2143 L 6498,2137 L 6507,2133 L 6512,2130 L 6516,2128 L 6518,2127 L 6519,2125"
       style="stroke:#000000;stroke-width:16"
       id="path274" />
  </g>
</svg>
